<?xml version="1.0" encoding="UTF-8" standalone="no"?>
<!-- Created with Inkscape (http://www.inkscape.org/) -->

<svg
   width="210mm"
   height="297mm"
   viewBox="0 0 210 297"
   version="1.1"
   id="svg5"
   inkscape:version="1.1.2 (b8e25be833, 2022-02-05)"
   sodipodi:docname="road_map.svg"
   xmlns:inkscape="http://www.inkscape.org/namespaces/inkscape"
   xmlns:sodipodi="http://sodipodi.sourceforge.net/DTD/sodipodi-0.dtd"
   xmlns="http://www.w3.org/2000/svg"
   xmlns:svg="http://www.w3.org/2000/svg">
  <sodipodi:namedview
     id="namedview7"
     pagecolor="#ffffff"
     bordercolor="#666666"
     borderopacity="1.0"
     inkscape:pageshadow="2"
     inkscape:pageopacity="0.0"
     inkscape:pagecheckerboard="0"
     inkscape:document-units="mm"
     showgrid="false"
     inkscape:zoom="0.45522587"
     inkscape:cx="605.19408"
     inkscape:cy="428.35878"
     inkscape:window-width="1366"
     inkscape:window-height="697"
     inkscape:window-x="-8"
     inkscape:window-y="-8"
     inkscape:window-maximized="1"
     inkscape:current-layer="layer1" />
  <defs
     id="defs2">
    <inkscape:path-effect
       effect="bspline"
       id="path-effect777"
       is_visible="true"
       lpeversion="1"
       weight="33.333333"
       steps="2"
       helper_size="0"
       apply_no_weight="true"
       apply_with_weight="true"
       only_selected="false" />
  </defs>
  <g
     inkscape:label="Layer 1"
     inkscape:groupmode="layer"
     id="layer1"
     style="display:inline">
    <path
       style="color:#000000;fill:#000000;-inkscape-stroke:none"
       d="m 4.0683594,17.884766 v 0.265625 h 142.9824206 0.004 c 0,0 5.64228,-0.288405 11.27734,1.951171 5.63507,2.239577 11.25,6.973618 11.25,17.095704 h 0.26367 c 0,-10.220359 -5.71743,-15.076975 -11.41601,-17.341797 -5.6939,-2.262959 -11.37347,-1.971185 -11.38282,-1.970703 z"
       id="path1447" />
    <path
       style="color:#000000;fill:#000000;-inkscape-stroke:none"
       d="m 169.56836,37.197266 c 0,12.278118 -5.62178,18.020444 -11.25,20.730468 -5.62823,2.710025 -11.26172,2.361329 -11.26172,2.361328 h -0.006 -123.802733 c 0,0 -3.524816,8.65e-4 -7.048828,2.132813 -3.524012,2.131948 -7.0449221,6.411153 -7.0449221,14.878906 h 0.2910156 c 0,-8.387415 3.4537565,-12.541407 6.9042965,-14.628906 3.450541,-2.087499 6.898438,-2.091797 6.898438,-2.091797 H 147.04687 c 0.0156,9.67e-4 5.69886,0.352816 11.39649,-2.390625 5.70542,-2.747196 11.41602,-8.624786 11.41601,-20.992187 z"
       id="path1529" />
    <path
       style="fill:none;stroke:#000000;stroke-width:0.314026px;stroke-linecap:butt;stroke-linejoin:miter;stroke-opacity:1"
       d="m 169.71428,123.93051 c 0,-28.655706 -22.66732,-27.018236 -22.66732,-27.018236 H 23.248532 c 0,0 -13.9491191,-0.0131 -13.9491191,-19.610904"
       id="path1895"
       sodipodi:nodetypes="cccc" />
    <path
       style="fill:none;stroke:#000000;stroke-width:0.291225px;stroke-linecap:butt;stroke-linejoin:miter;stroke-opacity:1"
       d="m 169.71428,123.93051 c 0,24.64554 -22.66732,23.23722 -22.66732,23.23722 H 23.248532 c 0,0 -13.9491191,0.0113 -13.9491191,16.8665"
       id="path2411"
       sodipodi:nodetypes="cccc" />
    <path
       style="fill:none;stroke:#000000;stroke-width:0.314026px;stroke-linecap:butt;stroke-linejoin:miter;stroke-opacity:1"
       d="m 9.2994129,164.03423 c 0,19.5978 13.9491191,19.6109 13.9491191,19.6109 H 147.04696 l 50.56556,0.0183"
       id="path2413"
       sodipodi:nodetypes="ccc" />
    <path
       style="fill:#000080;stroke-width:0.264583"
       d="m 18.01761,18.308218 a 3.1966729,3.1966729 0 0 1 -3.196673,3.196673 3.1966729,3.1966729 0 0 1 -3.196673,-3.196673 3.1966729,3.1966729 0 0 1 3.196673,-3.196673 3.1966729,3.1966729 0 0 1 3.196673,3.196673 z"
       id="path2645" />
    <path
       style="fill:#0000ff;stroke:#000000;stroke-width:0.264583px;stroke-linecap:butt;stroke-linejoin:miter;stroke-opacity:1"
       d="m 180.17612,177.85127 4.0685,5.23092 -3.48728,5.81213 z"
       id="path2894" />
  </g>
</svg>
