<?xml version="1.0" encoding="UTF-8"?>
<!DOCTYPE svg PUBLIC "-//W3C//DTD SVG 1.1//EN" "http://www.w3.org/Graphics/SVG/1.1/DTD/svg11.dtd">
<!-- Creator: CorelDRAW 2020 (64-Bit) -->
<svg xmlns="http://www.w3.org/2000/svg" xml:space="preserve" width="4.2332mm" height="4.2332mm" version="1.1" style="shape-rendering:geometricPrecision; text-rendering:geometricPrecision; image-rendering:optimizeQuality; fill-rule:evenodd; clip-rule:evenodd"
viewBox="0 0 423.32 423.32"
 xmlns:xlink="http://www.w3.org/1999/xlink"
 xmlns:xodm="http://www.corel.com/coreldraw/odm/2003">
 <defs>
  <style type="text/css">
   <![CDATA[
    .fil0 {fill:#FEFEFE}
    .fil2 {fill:#DBAF00}
    .fil1 {fill:#DBAF00;fill-rule:nonzero}
   ]]>
  </style>
 </defs>
 <g id="Layer_x0020_1">
  <metadata id="CorelCorpID_0Corel-Layer"/>
  <g id="_1679941324176">
   <rect class="fil0" x="4.88" y="4.88" width="413.56" height="413.56" rx="41.08" ry="41.08"/>
   <path class="fil1" d="M45.96 0l331.4 0c12.63,0 24.12,5.17 32.45,13.49 8.34,8.35 13.51,19.84 13.51,32.47l0 331.4c0,12.63 -5.17,24.12 -13.49,32.45 -8.35,8.34 -19.84,13.51 -32.47,13.51l-331.4 0c-12.63,0 -24.12,-5.17 -32.45,-13.49 -8.34,-8.35 -13.51,-19.84 -13.51,-32.47l0 -331.4c0,-12.63 5.17,-24.12 13.49,-32.45 8.35,-8.34 19.84,-13.51 32.47,-13.51zm331.4 9.76l-331.4 0c-9.96,0 -19.01,4.07 -25.57,10.63 -6.56,6.56 -10.63,15.61 -10.63,25.57l0 331.4c0,9.96 4.07,19.01 10.63,25.57 6.56,6.56 15.61,10.63 25.57,10.63l331.4 0c9.96,0 19.01,-4.07 25.57,-10.63 6.56,-6.56 10.63,-15.61 10.63,-25.57l0 -331.4c0,-9.96 -4.07,-19.01 -10.63,-25.57 -6.56,-6.56 -15.61,-10.63 -25.57,-10.63z"/>
   <path class="fil2" d="M377.85 258.33c0,-15.69 2.34,-51.66 -3,-65.12 -3.23,-8.13 -8.61,-12.92 -14.36,-19.11 -5.28,-5.67 -7.95,-17.31 -10.75,-24.69 -6.06,-15.94 -11.53,-34.72 -18.7,-49.86 -3.42,-7.19 -10.13,-12.61 -17.74,-14.84 -8.51,-2.5 -23.62,-1.22 -32.83,-1.22l-137.63 0c-19.64,0 -38.54,-3.18 -47.37,19.08 -6.58,16.58 -12.29,33.48 -18.58,50.16 -1.54,4.07 -3.07,8.14 -4.56,12.22 -2.72,7.48 -2.5,5.69 -7.57,10.59 -18.87,18.31 -19.31,21.55 -19.31,48.11 0,11.56 0,23.12 0,34.68 0,13.14 -2.1,55.13 2.82,65.22 3.63,7.44 9.73,12.57 17.67,15.01 6.3,1.94 25.07,1.87 31.79,0.82 7.54,-1.17 15.49,-6.35 19.39,-12.96 6.29,-10.66 3.52,-17.95 4.44,-29.5l0.1 -1.24 180.11 -0.2 0.08 1.26c0.81,11.4 -1.91,18.75 4.13,29.32 3.9,6.82 11.87,12.12 19.59,13.32 6.3,0.98 25.47,1.09 31.35,-0.67 8.18,-2.45 14.37,-7.49 18.11,-15.16 4.92,-10.08 2.82,-52.08 2.82,-65.22zm-226.4 -131.12c-11.86,0 -23.09,4.68 -31.47,13.06 -7.1,7.1 -11.61,16.36 -12.74,26.34l-0.14 1.2 -23.27 -0.01 15.06 -41.13c4.95,-13.01 7.07,-31.55 24.8,-31.55l180.11 0c17.95,0 20.17,17.82 25.1,31.26 2.45,6.71 14.38,35.7 14.38,40.17l0 1.35 -17.53 -0.12c-42.92,-0.32 -85.83,0.03 -128.74,0.04l-1.21 0 -0.13 -1.2c-1.15,-9.99 -5.66,-19.27 -12.78,-26.38 -8.36,-8.36 -19.61,-13.03 -31.44,-13.03zm34.8 40.62l-69.6 -0.01 0.24 -1.55c1.14,-7.33 4.58,-14.08 9.82,-19.32 6.58,-6.57 15.44,-10.22 24.74,-10.22 9.3,0 18.16,3.65 24.74,10.23 5.24,5.24 8.68,11.99 9.82,19.31l0.24 1.56zm128.49 127.82c8.53,-1.02 18.1,-0.17 26.76,-0.17 4.36,0 8.98,0.25 13.27,-0.48 3.83,-0.66 6.11,-2.12 9.6,-3.31l1.74 -0.59 0.05 1.84c0.35,15.48 2.96,35.31 -18.67,35.31 -28.03,0 -35.66,0.47 -33.94,-31.34l0.06 -1.13 1.13 -0.13zm-205 1.18c0.87,7.37 1.17,19.63 -3.92,25.47 -6.37,7.27 -15.31,5.95 -24.02,5.95 -27.07,0.01 -25.56,-11.98 -24.64,-35.33l0.07 -1.81 1.71 0.58c3.71,1.26 6,2.76 10.08,3.38 12.18,1.88 26.8,-0.94 39.55,0.58l1.05 0.12 0.12 1.06zm-52.65 -83.95c0,-7.79 2.06,-14.98 7.34,-20.85 2.14,-2.37 4.42,-4.42 6.77,-6.57 2.87,-2.61 4.55,-5.89 8.8,-5.89l266.89 0c5.75,0 15.67,13.96 17.45,18.98 3.74,10.55 1.83,53.13 1.81,66.98 -0.02,11.76 -6.99,18.33 -18.66,18.33l-271.68 0c-11.59,0 -18.72,-6.63 -18.72,-18.35l0 -52.63z"/>
   <path class="fil1" d="M97.02 209.26l35.91 0c4.32,0 8.25,1.78 11.12,4.64 2.88,2.88 4.65,6.82 4.65,11.14l0 10.03c0,4.32 -1.77,8.26 -4.63,11.12 -2.89,2.88 -6.82,4.66 -11.14,4.66l-35.91 0c-4.32,0 -8.26,-1.78 -11.12,-4.64 -2.88,-2.88 -4.65,-6.82 -4.65,-11.14l0 -10.03c0,-4.32 1.77,-8.26 4.63,-11.12 2.88,-2.88 6.83,-4.66 11.14,-4.66zm35.91 12.23l-35.91 0c-0.99,0 -1.88,0.39 -2.51,1.02 -0.65,0.65 -1.04,1.54 -1.04,2.53l0 10.03c0,0.99 0.39,1.88 1.02,2.51 0.65,0.65 1.54,1.04 2.53,1.04l35.91 0c0.99,0 1.88,-0.39 2.5,-1.02 0.65,-0.65 1.05,-1.54 1.05,-2.53l0 -10.03c0,-0.99 -0.4,-1.88 -1.02,-2.51 -0.65,-0.65 -1.54,-1.04 -2.53,-1.04z"/>
   <path class="fil1" d="M290.39 209.26l35.91 0c4.32,0 8.26,1.78 11.12,4.64 2.88,2.88 4.65,6.82 4.65,11.14l0 10.03c0,4.32 -1.77,8.26 -4.63,11.12 -2.88,2.88 -6.82,4.66 -11.14,4.66l-35.91 0c-4.32,0 -8.25,-1.78 -11.12,-4.64 -2.88,-2.88 -4.65,-6.82 -4.65,-11.14l0 -10.03c0,-4.32 1.77,-8.26 4.63,-11.12 2.89,-2.88 6.83,-4.66 11.14,-4.66zm35.91 12.23l-35.91 0c-0.98,0 -1.88,0.39 -2.5,1.02 -0.65,0.65 -1.05,1.54 -1.05,2.53l0 10.03c0,0.99 0.4,1.88 1.02,2.51 0.65,0.65 1.55,1.04 2.53,1.04l35.91 0c0.99,0 1.88,-0.39 2.51,-1.02 0.65,-0.65 1.04,-1.54 1.04,-2.53l0 -10.03c0,-0.99 -0.39,-1.88 -1.02,-2.51 -0.65,-0.65 -1.54,-1.04 -2.53,-1.04z"/>
   <rect class="fil2" x="169.1" y="210.27" width="91.52" height="10.9" rx="5.01" ry="5.45"/>
   <rect class="fil2" x="169.1" y="231.62" width="91.52" height="10.9" rx="5.01" ry="5.45"/>
  </g>
 </g>
</svg>
