<?xml version="1.0" encoding="UTF-8"?>
<!DOCTYPE svg PUBLIC "-//W3C//DTD SVG 1.1//EN" "http://www.w3.org/Graphics/SVG/1.1/DTD/svg11.dtd">
<!-- Creator: CorelDRAW 2020 (64-Bit) -->
<svg xmlns="http://www.w3.org/2000/svg" xml:space="preserve" width="4.2332mm" height="4.2332mm" version="1.1" style="shape-rendering:geometricPrecision; text-rendering:geometricPrecision; image-rendering:optimizeQuality; fill-rule:evenodd; clip-rule:evenodd"
viewBox="0 0 423.32 423.32"
 xmlns:xlink="http://www.w3.org/1999/xlink"
 xmlns:xodm="http://www.corel.com/coreldraw/odm/2003">
 <defs>
  <style type="text/css">
   <![CDATA[
    .fil0 {fill:#FEFEFE}
    .fil1 {fill:#1E2477}
    .fil2 {fill:#1E2477;fill-rule:nonzero}
   ]]>
  </style>
 </defs>
 <g id="Layer_x0020_1">
  <metadata id="CorelCorpID_0Corel-Layer"/>
  <g id="_1680002507648">
   <rect class="fil0" x="4.88" y="4.88" width="413.56" height="413.56" rx="41.08" ry="41.08"/>
   <path class="fil1" d="M150.65 122.09c2.32,4.84 23.55,10.39 31.51,11.77 15.06,2.6 25.74,1.78 40.77,2.34 2.14,7.47 9.03,12.95 17.19,12.95 9.88,0 17.89,-8.01 17.89,-17.89 0,-0.52 -0.02,-1.02 -0.06,-1.52 11.25,-4.32 9.83,-5.21 15.33,-7.65 2.11,4 0.64,11.33 1,16.21 0.64,8.62 6.87,2.53 9.76,7.59 2.22,3.9 2.67,10.31 1.98,15.38 -0.81,5.95 -2.86,7.62 -5.61,11.51 -6,0.48 -7.74,-1.5 -9.56,5.02 -2.19,7.82 -4.37,13.43 -8.12,20.63 -1.62,3.09 -4.6,6.86 -5.53,9.32 -2.12,1.71 -3.68,4.2 -5.79,6.42 -16.63,17.44 -40.58,24.37 -63.39,12.71 -16.7,-8.54 -27.2,-24.31 -33.28,-40.96 -1.22,-3.33 -1.85,-6.41 -3.02,-9.63 -1.89,-5.18 -4.29,-2.74 -9.19,-3.6 -4.93,-5.69 -8.86,-17.28 -3.59,-26.61 2.95,-5.24 9.02,0.72 9.81,-7.25 0.25,-2.63 0.1,-5.92 0.12,-8.62 0,-1.47 -0.06,-3.22 0,-4.64 0.16,-3.72 1.02,-3.08 1.78,-3.48zm89.78 0.43c4.73,0 8.58,3.85 8.58,8.58 0,4.74 -3.85,8.58 -8.58,8.58 -4.74,0 -8.59,-3.84 -8.59,-8.58 0,-4.73 3.85,-8.58 8.59,-8.58zm4.59 -8.47c3.81,1.08 7.11,3.4 9.43,6.49 4.04,-0.76 10.86,-4.52 12.79,-6.13 4.85,-4.04 3.37,-8.97 3.37,-16.63l-25.49 6.02c-0.11,6.52 -0.39,9.05 -0.1,10.25zm-22.05 12.1c1.73,-5.83 6.35,-10.4 12.2,-12.09l-0.01 -7.38c-3.58,-0.14 -16.18,3.69 -20.45,4.72 -5.46,1.31 -33.88,-7.01 -41.49,-8.89 -4.66,-1.14 -16.54,-4.77 -20.56,-4.88 -0.63,10.71 -1.49,14.54 6.08,18.76 5.21,2.91 12.26,5.05 18.78,6.56 12.3,2.82 32.05,5.16 45.45,3.2zm-71.82 136.13c-2.26,6.34 0.82,27.38 2.47,34.04 4.84,19.48 14.26,33.89 28.84,45.96 4.86,4.03 16.62,11.59 24.2,13.63l0 -69.37c-12.25,-2.45 -31.43,-11.57 -41.03,-21.2 -1.92,-1.94 -2.42,-3.45 -4.04,-5.13l-10.44 2.07zm-30.55 -183.25c3.35,2.03 21.55,5.69 27.03,7.1 8.84,2.29 18.08,4.51 27.1,6.77 9.24,2.33 18.19,4.61 27.19,6.85 5.21,1.3 8.04,2.9 13.49,1.48 4.15,-1.09 10.69,-1.97 13.55,-3.8l-17.89 -15.5c-1.93,-1.59 -5.23,-2.96 -3.96,-7.36 0.85,-2.93 4.48,-4.12 7.37,-2.37l24.69 20.8c3,2.38 4.08,1.2 8.46,0.08l53.39 -13.44c1.58,-0.61 0.79,-0.32 1.29,-0.61l-22.44 -6.03c-8.2,-2.02 -65.29,-16.83 -68.2,-16.86 -2.85,-0.03 -18.69,4.43 -22.61,5.42 -11.38,2.87 -65.52,15.61 -68.46,17.47zm11.74 269.56c-25.52,-7.34 -30.95,-10 -53.01,-22.91 -1.25,-14.12 -0.42,-25.97 6.87,-34.43 12.23,-13.83 47.39,-26.89 54.92,-25.69 -0.28,30.99 7.6,55.81 26.73,76.35 2.65,2.85 5.6,5.56 8.97,8.3 1.18,0.95 8.73,5.96 9.43,7.04 -14.41,0.19 -40.39,-4.76 -53.91,-8.66zm-58.67 -56.07c-3.83,7.38 -4.26,14.72 -4.26,24.01 0.02,13.87 -1.5,13.49 8.2,20.07 37.24,25.25 94.68,31.43 139.25,30.77 13.84,-0.2 41.58,-1.2 53.69,-4.58 23.89,-2.55 55.91,-13.03 74.47,-25.78 6.82,-4.7 8.63,-5.61 8.83,-11.25 0.45,-12.53 0.1,-25.15 -5.32,-34.96 -11.04,-19.98 -56.24,-34.32 -80.75,-39.41 -8.55,-1.77 -8.1,-1.3 -12.4,-7.82 -2.36,-3.59 -5.37,-9.35 -5.73,-14.45 4.2,-4.32 11.24,-9.51 13.87,-14.95 1.97,-0.58 8.06,-11.53 9.22,-13.8 2.83,-5.57 5.02,-11.06 6.77,-17.38 16.49,-2.76 19.32,-27.13 14.24,-39.25 -2.49,-5.98 -4.29,-6.87 -9.73,-9.86 -0.46,-7.22 -0.11,-12.62 -1.81,-19.51 -0.82,-3.32 -1.83,-4.78 -1.89,-8.28 -0.07,-3.56 -0.04,-7.43 0.06,-10.98l42.57 -10.77c3.92,-0.96 7.23,-2.72 5.45,-7.34 -1.19,-3.08 -5.88,-3.39 -9.1,-4.24l-85.62 -21.41c-28.08,-6.94 -15.8,-6.91 -43.54,-0.15l-85.65 21.41c-3.44,0.88 -7.96,1.33 -9.44,3.78 -2.52,4.2 0.85,6.82 4.45,7.72 14.43,3.64 29.03,7.12 43.25,10.8 0.25,12.39 0.59,8.74 -1.67,18.74 -2.24,4.32 -1.81,14.31 -2.12,20.01 -1.84,1.52 -3.67,1.81 -5.5,3.53 -5.49,5.16 -7.01,15.19 -6.33,22.91 0.49,5.44 2.28,11.03 4.71,14.81 5.07,7.88 9.37,6.69 11.21,8.23 1.6,1.98 3.78,9.94 5.31,13.23 4.92,10.65 16.61,27.63 24.86,32.08l-0.8 5.62c-1.44,2.58 -5.92,13.48 -9.73,15.7 -0.01,0 -16.8,3.65 -32.68,8.41 -18.47,5.52 -47.24,16.77 -56.34,34.34zm189.53 61.96c-7.63,0.82 -19.1,3.23 -26.52,2.7 2.86,-2.4 6.48,-4.53 9.42,-6.85 7.97,-6.28 14.51,-13.49 19.92,-22.1 11.75,-18.68 16.41,-39.45 16.02,-62.8 7.8,0.1 37.37,13.58 43.55,17.32 16.2,9.83 19.78,17.58 18.23,42.77 -19.65,15.3 -55.54,24.55 -80.62,28.96zm-29.43 -7.27c-3.23,2.08 -13.46,8.08 -17.31,8.64l0.03 -69c6.52,-2.85 18.85,-5.96 23.27,-9.49 3.56,-1.09 9.32,-4.94 12.09,-6.96 4.17,-3.04 6.33,-5.3 9.34,-10.07l10.43 1.84 0.74 2.37c1.62,9.67 -2.17,30.84 -5.3,39.95 -2.02,5.91 -4.79,11.81 -7.92,16.87 -6.41,10.34 -15.11,19.28 -25.37,25.85zm-0.15 -77.24c-5.31,1.69 -11.13,4.53 -17.09,6.49 -4.67,1.53 -4.19,1.87 -8.82,0.33 -11.36,-3.81 -32.7,-11.88 -36.86,-20.64 1.17,-2.79 5.82,-6.76 8.65,-13.92l2.86 -7.17c8.7,2.76 12.39,7.47 28.74,7.56 8.34,0.05 15.87,-1.48 23.34,-4.59 2.29,-0.96 4.35,-2.34 6.66,-2.73 0.84,3.99 2.79,8.11 4.79,11.43 1.48,2.49 6.06,8.23 6.49,9.42 -3.03,6.58 -11.93,9.57 -18.76,13.82z"/>
   <path class="fil2" d="M45.96 0l331.4 0c12.63,0 24.12,5.17 32.45,13.49 8.34,8.35 13.51,19.84 13.51,32.47l0 331.4c0,12.63 -5.17,24.12 -13.49,32.45 -8.35,8.34 -19.84,13.51 -32.47,13.51l-331.4 0c-12.63,0 -24.12,-5.17 -32.45,-13.49 -8.34,-8.35 -13.51,-19.84 -13.51,-32.47l0 -331.4c0,-12.63 5.17,-24.12 13.49,-32.45 8.35,-8.34 19.84,-13.51 32.47,-13.51zm331.4 9.76l-331.4 0c-9.95,0 -19.01,4.07 -25.57,10.63 -6.56,6.56 -10.63,15.61 -10.63,25.57l0 331.4c0,9.96 4.07,19.01 10.63,25.57 6.56,6.56 15.62,10.63 25.57,10.63l331.4 0c9.96,0 19.01,-4.07 25.57,-10.63 6.56,-6.56 10.63,-15.61 10.63,-25.57l0 -331.4c0,-9.96 -4.07,-19.01 -10.63,-25.57 -6.56,-6.56 -15.61,-10.63 -25.57,-10.63z"/>
  </g>
 </g>
</svg>
