<?xml version="1.0" encoding="UTF-8"?>
<!DOCTYPE svg PUBLIC "-//W3C//DTD SVG 1.1//EN" "http://www.w3.org/Graphics/SVG/1.1/DTD/svg11.dtd">
<!-- Creator: CorelDRAW 2020 (64-Bit) -->
<svg xmlns="http://www.w3.org/2000/svg" xml:space="preserve" width="4.2332mm" height="4.2332mm" version="1.1" style="shape-rendering:geometricPrecision; text-rendering:geometricPrecision; image-rendering:optimizeQuality; fill-rule:evenodd; clip-rule:evenodd"
viewBox="0 0 423.32 423.32"
 xmlns:xlink="http://www.w3.org/1999/xlink"
 xmlns:xodm="http://www.corel.com/coreldraw/odm/2003">
 <defs>
  <style type="text/css">
   <![CDATA[
    .fil0 {fill:#FEFEFE}
    .fil2 {fill:#1E2477}
    .fil1 {fill:#1E2477;fill-rule:nonzero}
   ]]>
  </style>
 </defs>
 <g id="Layer_x0020_1">
  <metadata id="CorelCorpID_0Corel-Layer"/>
  <rect class="fil0" x="4.88" y="4.88" width="413.56" height="413.56" rx="41.08" ry="41.08"/>
  <path class="fil1" d="M45.96 0l331.4 0c12.63,0 24.12,5.17 32.45,13.49 8.34,8.35 13.51,19.84 13.51,32.47l0 331.4c0,12.63 -5.17,24.12 -13.49,32.45 -8.35,8.34 -19.84,13.51 -32.47,13.51l-331.4 0c-12.63,0 -24.12,-5.17 -32.45,-13.49 -8.34,-8.35 -13.51,-19.84 -13.51,-32.47l0 -331.4c0,-12.63 5.17,-24.12 13.49,-32.45 8.35,-8.34 19.84,-13.51 32.47,-13.51zm331.4 9.76l-331.4 0c-9.95,0 -19.01,4.07 -25.57,10.63 -6.56,6.56 -10.63,15.61 -10.63,25.57l0 331.4c0,9.96 4.07,19.01 10.63,25.57 6.56,6.56 15.62,10.63 25.57,10.63l331.4 0c9.96,0 19.01,-4.07 25.57,-10.63 6.56,-6.56 10.63,-15.61 10.63,-25.57l0 -331.4c0,-9.96 -4.07,-19.01 -10.63,-25.57 -6.56,-6.56 -15.61,-10.63 -25.57,-10.63z"/>
  <g id="_2538891973536">
   <path class="fil2" d="M179.25 321.54c-3.32,12.87 -17.21,27.92 -5.56,35.15 5.37,3.33 8.6,0.64 13.95,-0.61 2.54,9.37 12.82,13.31 18.92,5.49 2.02,-2.57 8.57,-18.44 9.91,-22.14 7.5,8.45 6.38,29.35 21.76,25.71 5.11,-1.19 6.47,-4.29 7.92,-9.1 5.1,1.29 8.01,3.73 13.55,0.96 12.19,-6.08 -1.78,-23.8 -5.32,-34.92 21.05,-1.29 68.57,4.37 89.88,7.99 15.25,2.61 17.54,-9.45 20.11,-25.51 2.42,-15.1 4.48,-75.9 -11.17,-81.88 -4.41,-1.68 -36.5,3.76 -44.07,4.36 -80.24,6.42 -115.47,6.22 -195.73,-0.08 -8.05,-0.64 -39.46,-6.72 -44.48,-3.56 -14.74,9.25 -15.29,84.71 -3.28,102.59 5.1,7.61 10.01,4.35 19.5,3.17 31.01,-3.86 62.09,-7.08 94.11,-7.62zm37.7 -61.39c5.22,0 10.18,1.04 14.69,2.91l-3.03 -21.58 -35.84 0.15 3.52 24.57c5.91,-3.81 13,-6.05 20.66,-6.05zm25.71 9.99c6.93,6.44 11.25,15.46 11.25,25.45 0,5.78 -1.45,11.24 -4.01,16.06l50.92 3.33c16.12,1.42 33.13,3.19 48.59,5.71 8.78,-15.03 8.22,-73.12 0.09,-88.66 -35.29,6.31 -73.87,7.67 -110.59,9.23 1.03,6.16 2.25,11.66 2.87,18.37 0.54,5.9 0.29,8.31 0.88,10.51zm-0.01 50.9c-4.82,4.47 -10.9,7.7 -17.69,9.15l-0.5 0.18 10.66 24.72c2.33,-3.27 3.41,-8.65 6.42,-10.05 3.66,-1.7 8.92,1.98 12.57,2.83l-11.46 -26.83zm-33.57 9.18c-6.59,-1.37 -12.54,-4.45 -17.31,-8.71l-0.32 -0.18 -11.94 26.48c16.06,-4.12 10.07,-6.97 18.7,6.74 0.16,-0.15 0.38,-0.66 0.44,-0.52 0.06,0.14 0.35,-0.42 0.43,-0.55l10 -23.26zm-25.17 -18.74c-2.5,-4.77 -3.92,-10.18 -3.92,-15.89 0,-7.15 2.21,-13.8 6.01,-19.37 0.67,-5.5 -0.02,-14.9 -4.18,-35.06 -16.68,-0.52 -34.01,-0.96 -50.4,-2.67 -15.43,-1.61 -33.08,-4.01 -47.96,-4.96 6.31,32.28 6.52,53.35 0,85.69 16.07,-1.3 32.45,-3.64 48.93,-5.11 16.96,-1.5 34.34,-1.98 51.54,-2.52l-0.02 -0.11zm33.04 -39.86c13.8,0 25,10.74 25,23.97 0,13.22 -11.2,23.97 -25,23.97 -13.8,0 -25,-10.75 -25,-23.97 0,-10.13 6.56,-18.8 15.84,-22.31l0.57 -0.21 0.23 -0.08 0.35 -0.11 0.58 -0.18 0.59 -0.17 0.01 -0.02c2.18,-0.59 4.46,-0.89 6.83,-0.89zm-144.2 44.88c7.18,-10.8 7.17,-69.43 0,-80.21 -7.28,11.85 -7.28,68.37 0,80.21z"/>
   <path class="fil2" d="M134.5 153.3c0.15,33.42 -5.49,39.73 18.31,46.48 28.93,8.21 132.85,11.78 135.99,-13.64 1.04,-8.45 0.08,-23.62 0.12,-32.82l0 -0.68 25.77 -8.65 0 17.51c-4.28,1.94 -7.26,6.25 -7.26,11.24l0 14.62 24.71 0 0 -14.62c0,-4.99 -3,-9.31 -7.28,-11.24l0 -20.93 22.08 -7.41c6.44,-2.4 13.05,-5.02 14.28,-5.84 3.56,-2.35 6.35,-6.88 4.09,-12.57 -1.81,-4.58 -6.46,-5.94 -11.58,-7.77l-109.49 -39.09c-33.58,-11.65 -26.61,-14.36 -55.72,-3.26 -36.11,13.76 -73.2,25.45 -109.45,39.13 -7.99,3.02 -21.64,4.65 -21.64,14.94 0,9.78 13.48,12.24 22.26,15.25 11.45,3.93 46.5,17.29 54.81,19.35zm185.28 14.53l0 0c3.05,0 5.54,2.49 5.54,5.54l0 6.56 -11.09 0 0 -6.56c0,-3.05 2.49,-5.54 5.55,-5.54zm-174.33 17.66c15.57,13.67 116.83,13.6 132.52,0 -23.05,-13.72 -109.36,-13.62 -132.52,0zm-0.58 -55.21l0 43.53c28.73,-6.64 33.8,-8.71 66.85,-8.71 12.35,0 23.53,0.76 35.66,1.97 12.75,1.26 20.47,4.59 31.17,6.74l0.02 -43.53c-8.87,-15.17 -124.84,-15.21 -133.7,0zm180.1 -0.78c5.77,-1.92 25.56,-9.14 29.46,-10.8 -9.16,-3.83 -21.17,-7.95 -29.46,-10.46l0 21.26zm-255.94 -10.8l65.16 23.76c1.46,-10.08 -2.33,-16.36 5.79,-22.14 14.28,-10.17 54.41,-11.93 71.71,-11.93 16.87,0 35.27,1.28 51.23,4.44 33.36,6.6 24.62,17.74 26.33,29.65 4.81,-1.78 25.37,-8.35 25.44,-10.44l0 -25.88c0,-3.91 -9.6,-5.62 -13.14,-6.84l-46.94 -16.77c-10.44,-3.81 -20.3,-7.14 -30.56,-10.91 -14.97,-5.49 -11.08,-5 -31.71,2.63 -8.76,3.23 -118.96,41.4 -123.31,44.43z"/>
  </g>
 </g>
</svg>
