<?xml version="1.0" encoding="UTF-8"?>
<!DOCTYPE svg PUBLIC "-//W3C//DTD SVG 1.1//EN" "http://www.w3.org/Graphics/SVG/1.1/DTD/svg11.dtd">
<!-- Creator: CorelDRAW 2020 (64-Bit) -->
<svg xmlns="http://www.w3.org/2000/svg" xml:space="preserve" width="4.2332mm" height="4.2332mm" version="1.1" style="shape-rendering:geometricPrecision; text-rendering:geometricPrecision; image-rendering:optimizeQuality; fill-rule:evenodd; clip-rule:evenodd"
viewBox="0 0 423.32 423.32"
 xmlns:xlink="http://www.w3.org/1999/xlink"
 xmlns:xodm="http://www.corel.com/coreldraw/odm/2003">
 <defs>
  <style type="text/css">
   <![CDATA[
    .fil0 {fill:#FEFEFE}
    .fil1 {fill:#F7941D}
    .fil2 {fill:#F7941D;fill-rule:nonzero}
   ]]>
  </style>
 </defs>
 <g id="Layer_x0020_1">
  <metadata id="CorelCorpID_0Corel-Layer"/>
  <rect class="fil0" x="4.88" y="4.88" width="413.56" height="413.56" rx="41.08" ry="41.08"/>
  <path class="fil1" d="M99.97 240.72c2.13,11.21 0.45,29.11 0.43,41.06 -0.02,13.44 -0.14,26.88 -0.14,40.31 -0.01,11.74 0.44,19.56 9.66,27.83 9.32,8.37 18.99,7.28 30.64,7.28 5.71,0 35.78,1.68 38.89,-1.78 1.89,-2.1 1.54,-10.22 1.55,-13.05l0.1 -61.06c0.54,-6.03 4.49,-11.58 10.05,-14 5.1,-2.21 35.6,-2.31 40.78,-0.19 14,5.7 10.63,22.3 10.63,34.18l0 40.55c0,4.19 -1.36,11.48 2.58,14.29 2.72,1.95 13.45,1.06 17.02,1.06 6.76,0 13.51,0 20.26,0 11.45,0 21.71,1.09 30.97,-7 8.97,-7.84 9.92,-16.26 9.92,-27.59 -0.01,-13.52 -0.13,-27.04 -0.16,-40.56 -0.02,-12.5 -1.66,-29.33 0.41,-41.28l0.38 -2.24 2.27 -0.07c11.62,-0.36 20.21,-2.24 25.78,-13.41 2.19,-4.4 2.87,-12.47 1.57,-17.2 -1.39,-5.06 -4.09,-8.45 -7.74,-12.09l-19.46 -19.45 0 -87.06c0,-6.04 -2.47,-11.52 -6.43,-15.49 -3.97,-3.96 -9.45,-6.43 -15.5,-6.43 -6.02,0 -11.52,2.47 -15.48,6.43 -3.97,3.97 -6.43,9.45 -6.43,15.49l0 43.19 -23.48 -23.51c-10.65,-10.7 -21.01,-22.92 -32.73,-32.37 -7.66,-6.19 -21.8,-6.03 -29.37,0.23 -3.91,3.22 -7.26,7.06 -10.83,10.63l-108.62 108.67c-11.53,11.54 -11.65,30.09 3.15,38.9 5.61,3.34 10.4,3.25 16.7,3.47l2.22 0.08 0.41 2.18zm214.3 -76.51l-11.84 -11.85 -7.82 -7.82 0 -55.29c0,-2.69 1.1,-5.16 2.88,-6.94 1.78,-1.77 4.24,-2.89 6.95,-2.89 2.69,0 5.17,1.12 6.94,2.89 1.78,1.78 2.89,4.25 2.89,6.94l0 74.96zm-147.43 181.46c-9.97,0.43 -19.94,0.07 -29.91,0.07 -9.8,0 -18.44,0.46 -23.5,-9.7 -3.55,-7.12 -1.68,-74.82 -1.68,-88.3 0,-4.92 2.26,-18.58 -4.06,-20.48 -8.42,-2.53 -19.42,3.91 -25.37,-6.5 -2.66,-4.66 -2.11,-10.11 1.22,-14.5l47.59 -47.51c9.81,-9.78 18.97,-20.31 29.34,-29.43l36.48 -36.49c10.18,-8.98 14.07,-15.88 26.38,-3.28l51.15 51.22c9.89,9.7 19.64,19.54 29.38,29.4 9.65,9.77 19.57,19.26 29.13,29.12 6.37,6.57 14.23,12.38 7.78,22.31 -6.32,9.71 -18.12,2.73 -25.49,5.84 -5.46,2.31 -3.43,16.59 -3.43,21.35l0 58.75c0,7.46 1.32,22.47 -1.92,28.9 -4.9,9.75 -14.45,9.3 -23.87,9.3 -9.79,0 -19.59,0.47 -29.37,-0.08l-2.64 -0.15 0 -2.63c0,-11.03 0.21,-22.05 0.22,-33.07 0,-8.91 0.95,-25.72 -1.11,-33.86 -1.93,-7.67 -6.65,-13.79 -13.45,-17.8 -8.3,-4.9 -18.73,-3.81 -27.96,-3.81 -9.58,0 -19.62,-1.19 -28.2,4.03 -6.79,4.13 -11.45,10.33 -13.26,18.09 -1.99,8.51 -1,24.45 -0.99,33.63 0.02,10.93 0.21,21.86 0.21,32.8l0 2.66 -2.67 0.12z"/>
  <path class="fil2" d="M194.58 143.27l34.19 0c4.22,0 8.05,1.72 10.84,4.51 2.81,2.81 4.53,6.64 4.53,10.86l0 34.19c0,4.21 -1.73,8.07 -4.52,10.85 -2.76,2.79 -6.61,4.52 -10.85,4.52l-34.19 0c-4.23,0 -8.09,-1.73 -10.86,-4.51 -2.78,-2.77 -4.51,-6.63 -4.51,-10.86l0 -34.19c0,-4.24 1.73,-8.09 4.51,-10.86 2.79,-2.78 6.65,-4.51 10.86,-4.51zm34.19 10.7l-34.19 0c-1.29,0 -2.47,0.52 -3.3,1.35 -0.84,0.87 -1.37,2.04 -1.37,3.32l0 34.19c0,1.28 0.53,2.45 1.37,3.3 0.85,0.84 2.02,1.37 3.3,1.37l34.19 0c1.28,0 2.45,-0.53 3.3,-1.37 0.85,-0.83 1.37,-2.01 1.37,-3.3l0 -34.19c0,-1.3 -0.52,-2.46 -1.35,-3.3 -0.86,-0.85 -2.02,-1.37 -3.32,-1.37z"/>
 </g>
</svg>
