<?xml version="1.0" encoding="UTF-8"?>
<!DOCTYPE svg PUBLIC "-//W3C//DTD SVG 1.1//EN" "http://www.w3.org/Graphics/SVG/1.1/DTD/svg11.dtd">
<!-- Creator: CorelDRAW 2020 (64-Bit) -->
<svg xmlns="http://www.w3.org/2000/svg" xml:space="preserve" width="6.3498mm" height="6.3498mm" version="1.1" style="shape-rendering:geometricPrecision; text-rendering:geometricPrecision; image-rendering:optimizeQuality; fill-rule:evenodd; clip-rule:evenodd"
viewBox="0 0 634.98 634.98"
 xmlns:xlink="http://www.w3.org/1999/xlink"
 xmlns:xodm="http://www.corel.com/coreldraw/odm/2003">
 <defs>
  <style type="text/css">
   <![CDATA[
    .fil1 {fill:#0D88C3}
    .fil0 {fill:#0D88C3;fill-rule:nonzero}
   ]]>
  </style>
 </defs>
 <g id="Layer_x0020_1">
  <metadata id="CorelCorpID_0Corel-Layer"/>
  <path class="fil0" d="M66.37 4.22l493.79 0c19.36,0 36.99,7.94 49.8,20.73l0.08 0.08c12.79,12.81 20.73,30.44 20.73,49.8l0 493.79c0,19.36 -7.94,36.99 -20.73,49.8l-0.08 0.08c-12.81,12.79 -30.44,20.72 -49.8,20.72l-493.79 0c-19.36,0 -36.99,-7.93 -49.8,-20.72l-0.08 -0.08c-12.79,-12.81 -20.72,-30.44 -20.72,-49.8l0 -493.79c0,-19.36 7.93,-36.99 20.72,-49.8l0.08 -0.08c12.81,-12.79 30.44,-20.73 49.8,-20.73zm493.79 35.95l-493.79 0c-9.57,0 -18.23,3.88 -24.46,10.12l-0.08 0.08c-6.24,6.23 -10.12,14.89 -10.12,24.46l0 493.79c0,9.57 3.88,18.23 10.12,24.46l0.08 0.08c6.23,6.24 14.89,10.12 24.46,10.12l493.79 0c9.57,0 18.23,-3.88 24.46,-10.12l0.08 -0.08c6.24,-6.23 10.12,-14.89 10.12,-24.46l0 -493.79c0,-9.57 -3.88,-18.23 -10.12,-24.46l-0.08 -0.08c-6.23,-6.24 -14.89,-10.12 -24.46,-10.12z"/>
  <g id="_2272584892288">
   <rect class="fil1" x="297.24" y="22.2" width="26.35" height="603.44"/>
   <rect class="fil1" transform="matrix(3.80884E-15 -0.715912 0.0819398 1.08031E-14 169.437 168.033)" width="33.06" height="1711.2"/>
   <rect class="fil1" transform="matrix(3.80884E-15 -0.715912 0.0819398 1.08031E-14 170.197 488.899)" width="33.06" height="1711.2"/>
   <path class="fil0" d="M97.01 99.76l65.08 0c7.26,0 13.85,2.83 18.62,7.38 4.76,4.55 7.72,10.85 7.72,17.78l0 62.55c0,6.89 -2.96,13.17 -7.72,17.74 -4.77,4.59 -11.36,7.42 -18.62,7.42l-65.08 0c-7.25,0 -13.85,-2.83 -18.61,-7.37 -4.76,-4.62 -7.73,-10.9 -7.73,-17.79l0 -62.55c0,-6.93 2.97,-13.23 7.73,-17.78 4.76,-4.55 11.36,-7.38 18.61,-7.38zm65.08 23.97l-65.08 0c-0.33,0 -0.64,0.14 -0.87,0.35 -0.23,0.22 -0.38,0.52 -0.38,0.84l0 62.55c0,0.34 0.14,0.65 0.36,0.86 0.25,0.2 0.56,0.34 0.89,0.34l65.08 0c0.33,0 0.65,-0.14 0.87,-0.36 0.24,-0.19 0.38,-0.5 0.38,-0.84l0 -62.55c0,-0.32 -0.15,-0.62 -0.38,-0.84 -0.22,-0.21 -0.54,-0.35 -0.87,-0.35z"/>
   <g>
    <rect class="fil1" transform="matrix(3.80884E-15 -0.715912 0.0819398 1.08031E-14 310.417 335.755)" width="33.06" height="1711.2"/>
    <path class="fil0" d="M464.43 267.48l65.08 0c7.25,0 13.85,2.83 18.61,7.38 4.77,4.55 7.73,10.85 7.73,17.77l0 62.56c0,6.89 -2.96,13.18 -7.73,17.74 -4.76,4.59 -11.36,7.42 -18.61,7.42l-65.08 0c-7.25,0 -13.85,-2.83 -18.61,-7.37 -4.77,-4.61 -7.73,-10.9 -7.73,-17.79l0 -62.56c0,-6.92 2.96,-13.22 7.73,-17.77 4.76,-4.55 11.36,-7.38 18.61,-7.38zm65.08 23.97l-65.08 0c-0.33,0 -0.65,0.14 -0.87,0.35 -0.23,0.22 -0.38,0.52 -0.38,0.83l0 62.56c0,0.33 0.14,0.64 0.36,0.86 0.24,0.2 0.56,0.34 0.89,0.34l65.08 0c0.33,0 0.65,-0.14 0.87,-0.36 0.24,-0.2 0.38,-0.51 0.38,-0.84l0 -62.56c0,-0.31 -0.15,-0.61 -0.38,-0.83 -0.22,-0.21 -0.54,-0.35 -0.87,-0.35z"/>
   </g>
   <path class="fil0" d="M97.01 420.64l65.08 0c7.26,0 13.85,2.83 18.62,7.37 4.76,4.55 7.72,10.85 7.72,17.78l0 62.56c0,6.92 -2.96,13.22 -7.72,17.77 -4.77,4.55 -11.36,7.38 -18.62,7.38l-65.08 0c-7.25,0 -13.85,-2.83 -18.61,-7.38 -4.76,-4.55 -7.73,-10.85 -7.73,-17.77l0 -62.56c0,-6.93 2.97,-13.23 7.73,-17.78 4.76,-4.54 11.36,-7.37 18.61,-7.37zm65.08 23.96l-65.08 0c-0.33,0 -0.64,0.14 -0.87,0.36 -0.23,0.21 -0.38,0.52 -0.38,0.83l0 62.56c0,0.31 0.15,0.61 0.38,0.83 0.23,0.21 0.54,0.35 0.87,0.35l65.08 0c0.33,0 0.65,-0.14 0.87,-0.35 0.23,-0.22 0.38,-0.52 0.38,-0.83l0 -62.56c0,-0.31 -0.15,-0.62 -0.38,-0.83 -0.22,-0.22 -0.54,-0.36 -0.87,-0.36z"/>
  </g>
 </g>
</svg>
