<?xml version="1.0" encoding="UTF-8"?>
<!DOCTYPE svg PUBLIC "-//W3C//DTD SVG 1.1//EN" "http://www.w3.org/Graphics/SVG/1.1/DTD/svg11.dtd">
<!-- Creator: CorelDRAW 2020 (64-Bit) -->
<svg xmlns="http://www.w3.org/2000/svg" xml:space="preserve" width="4.2332mm" height="4.2332mm" version="1.1" style="shape-rendering:geometricPrecision; text-rendering:geometricPrecision; image-rendering:optimizeQuality; fill-rule:evenodd; clip-rule:evenodd"
viewBox="0 0 423.32 423.32"
 xmlns:xlink="http://www.w3.org/1999/xlink"
 xmlns:xodm="http://www.corel.com/coreldraw/odm/2003">
 <defs>
  <style type="text/css">
   <![CDATA[
    .fil0 {fill:#FEFEFE}
    .fil1 {fill:#EA0000}
   ]]>
  </style>
 </defs>
 <g id="Layer_x0020_1">
  <metadata id="CorelCorpID_0Corel-Layer"/>
  <rect class="fil0" x="4.88" y="4.88" width="413.56" height="413.56" rx="41.08" ry="41.08"/>
  <g id="_2089071444480">
   <g>
    <ellipse class="fil1" cx="319.01" cy="189.81" rx="5.31" ry="6.56"/>
   </g>
   <g>
    <ellipse class="fil1" cx="275.89" cy="189.81" rx="5.31" ry="6.56"/>
   </g>
   <g>
    <ellipse class="fil1" cx="146.67" cy="186.21" rx="6.52" ry="8"/>
   </g>
   <g>
    <ellipse class="fil1" cx="103.55" cy="186.21" rx="6.52" ry="8"/>
   </g>
   <g>
    <path class="fil1" d="M277.59 209.7c-9.89,5.21 18.64,21.39 37.75,6.72 2.71,-2.08 4.19,-6.76 -0.47,-7.13 -4.44,-0.36 -11.54,10.71 -26.53,4.9 -2.93,-1.14 -7.91,-5.99 -10.75,-4.49z"/>
   </g>
   <g>
    <path class="fil1" d="M106.34 209.52c-4.6,1.34 -1.83,5.49 0.88,7.44 3.11,2.25 7.16,4.16 10.93,5.01 8.63,1.97 18,0 25.14,-5.23 3.03,-2.21 4.57,-6.67 0.15,-7.41 -4.03,-0.67 -11.32,10.38 -26.41,4.99 -3.12,-1.11 -7.87,-5.62 -10.69,-4.8z"/>
   </g>
   <g>
    <path class="fil1" d="M99.5 100.6c-3.58,1.14 -7.35,1.39 -10.92,2.63 -9.3,3.24 -16.86,9.28 -22.46,17.34 -10.67,15.38 -6.82,29.12 -8.06,46.57l-0.04 0.67 -0.56 0.38c-3.93,2.66 -6.18,3.79 -8.59,8.03 -4.57,8.06 -2.34,18.34 5.1,23.86 4.47,3.31 8.37,3.46 13.78,3.79l1.05 0.06 0.21 1.03c3.67,17.43 16.53,35.3 33.71,41.41l0.91 0.32 0.04 14.49 -1.38 0c-11.43,0 -28.81,-1.84 -38.81,3.8 -10.03,5.66 -15.03,15.49 -15.03,26.89l0 39.23c0,10.48 8.46,8.51 16.3,8.51 7.27,0 7.29,-6.96 -0.03,-6.96l-9.26 0 -0.05 -40.19c-0.01,-14.05 9.3,-24.88 23.83,-24.15l0.79 0.05 0.37 0.7c2.25,4.43 7.67,8.42 9.4,12.95l0.38 0.97 -0.84 0.62c-14.11,10.6 -0.84,13.83 10.22,20.54 3.23,1.95 7.27,3.87 10.1,6.3l0.55 0.48 -0.09 0.73c-0.36,3.05 -1.36,5.62 -1.48,8.79 -0.13,3.48 -0.03,6.96 -0.03,10.43l0 1.05 -1.01 0.28c-5.9,1.65 -13.45,-0.73 -19.13,0.59 -3.51,0.82 -4.32,6.82 2.41,6.82l102.86 0c5.78,0 7.99,-2.9 7.99,-8.51l0 -38.64c0,-11.69 -4.58,-21.29 -14.72,-27.3 -10.05,-5.96 -27.56,-3.96 -39.12,-3.98l-1.38 0 0.02 -14.48 0.93 -0.31c16.98,-5.82 30.09,-24.28 33.69,-41.43l0.22 -1.02 1.04 -0.07c5.26,-0.35 9.07,-0.31 13.47,-3.5 7.61,-5.51 10.05,-15.5 5.61,-23.84 -2.34,-4.37 -4.79,-5.67 -8.78,-8.34l-0.56 -0.37 -0.05 -0.69c-1.12,-17.28 2.51,-30.92 -7.83,-46.24 -5.37,-7.97 -13.17,-14.3 -22.26,-17.53 -3.72,-1.33 -7.63,-1.57 -11.36,-2.76l-0.78 -0.26 -0.15 -0.81c-1.6,-8.69 3.14,-15.89 -10.08,-15.89 -6.67,0 -8.41,1.06 -13.44,4.91l-0.6 0.46 -0.71 -0.27c-7.22,-2.66 -3.72,-5.1 -15.57,-5.1 -11.63,0 -7.52,8.81 -8.88,15.9l-0.16 0.81 -0.78 0.25zm60.88 181.34c1.16,-2.88 5.3,-7.21 7.32,-9.88 2.22,-2.94 2.2,-4.03 6.46,-3.82 12.79,0.66 20.6,12.1 20.6,24.22l0 40.19 -79.23 -0.17 0.25 -14.72 0.7 -0.38c10.24,-5.62 21.55,-9.87 32.2,-14.73 10.49,-4.79 26.92,-7.83 12.15,-19.1l-0.84 -0.63 0.39 -0.98zm-36.52 21.48c1.73,-5.1 7.38,-12.79 10.37,-17.69 3.4,-5.59 6.58,-11.78 10.47,-17l0.42 -0.56 15.11 0.04 -0.41 1.7c-0.75,3.09 -5.44,7.07 -7.12,10.09 -2.19,3.94 -0.05,5.57 2.57,8.14 0.45,0.44 0.64,0.61 1.02,1.13l0.75 1.03 -0.97 0.83c-2.65,2.27 -26.65,13.09 -30.56,14.07l-2.45 0.61 0.8 -2.39zm-2.97 -12.28c-1.59,-1.69 -1.78,-3.03 -2.46,-5.11 -5.15,-15.58 -7.74,-17.48 -7.74,-34.87l0 -1.54 1.53 0.16c10.05,1.1 15.68,1.09 25.74,0l1.52 -0.16 0 1.54c0,4.14 0.93,10.3 -0.87,14.03 -4.15,8.58 -11.12,16.81 -15.48,25.61l-0.88 1.78 -1.36 -1.44zm-27.86 -1.33c2.55,-3.15 7.11,-4.5 4.61,-9.51 -1.65,-3.31 -6.42,-7.04 -7.3,-10.42l-0.46 -1.74 14.66 0.15 0.37 0.81c2.11,4.71 11.63,29.98 10.85,33.54l-0.21 0.94 -0.95 0.13c-3.15,0.44 -8.85,-3.97 -11.58,-5.66 -2.84,-1.74 -7.77,-4.11 -9.93,-6.43l-0.82 -0.88 0.76 -0.93zm89.22 -93.05l-0.03 -22.91 1.38 0c17.75,-0.02 17.33,22.89 0.03,22.91l-1.38 0zm-115.91 -0.01c-17.16,-0.11 -17.49,-22.78 0.25,-22.93l1.41 -0.01 -0.29 22.95 -1.37 -0.01zm9.97 -22.93c15.31,0 21.53,-0.75 27.68,-15.38l0.35 -0.85 41.38 0.01 0.39 0.72c3.01,5.53 3.01,8.65 9.03,12.45 5.75,3.62 12.22,3.05 18.72,3.05l1.38 0 0 1.38c0,17.9 1.45,34.66 -10.51,49.4 -21.39,26.36 -58.3,26.03 -79.56,-0.35 -11.75,-14.58 -10.24,-31.42 -10.24,-49.05l0 -1.38 1.38 0zm52.57 -74.87c0.47,-6.77 6.35,-8.52 12.22,-8.25l1.36 0.07 -0.3 9.76 -13.39 -0.12 0.11 -1.46zm-21.02 1.46l-0.09 -9.6 1.31 -0.08c5.96,-0.37 11.68,1.45 12.2,8.25l0.12 1.44 -3.76 0.11 -6 0.01 -3.78 -0.13zm75.79 66.39c-9.79,0.33 -27.49,3.03 -30.3,-9.78 -1.79,-8.18 -1.4,-6.44 -10.15,-6.42 -6.14,0.01 -12.29,0 -18.43,0 -2.65,0 -24.61,-0.97 -26.27,0.81 -0.77,0.84 -1.5,4.97 -1.82,6.17 -3.15,12.01 -20.72,9.79 -30.19,9.17l-1.3 -0.08 0 -1.29c0,-17.27 -1.87,-34.4 12.01,-47.16 14.42,-13.25 30.02,-10.68 48.16,-10.68 17.96,0 33.84,-2.37 47.93,10.94 13.54,12.8 11.69,29.83 11.69,46.94l0 1.33 -1.33 0.05z"/>
   </g>
   <g>
    <path class="fil1" d="M296.86 299.86c-2.6,-1.06 -5.34,-5.11 -8,-7.15 -15.46,-11.9 -37.4,-4.06 -43.64,14.05 -3.17,9.22 -0.56,15.21 1.7,24.08l0.44 1.71 -20.25 0.04 0 -1.38c0,-11.33 0,-22.66 0,-33.99 -0.01,-10.42 0.36,-19.11 10.13,-25.31 8.6,-5.45 21.07,-3.75 30.83,-3.75 19.07,0 12.42,-0.93 14.49,-17.12l0.16 -1.21 1.21 0.01c2.94,0.01 5.21,0.15 8.05,0.77 4.42,0.97 13.28,-0.35 17.67,-0.84l1.53 -0.17 0 1.54c0,22.04 0.83,17.02 24.66,17.02 13.36,0 25.33,1.11 29.7,16.34 1.48,5.15 -0.03,17.46 1.37,20.42 0.92,1.95 3.58,2.36 5.23,1.01 1.76,-1.43 1.3,-6.07 1.29,-8.11 -0.03,-11.58 -0.84,-23.41 -11.49,-30.42l-0.81 -0.53 0.23 -0.94c1.47,-6.27 3.1,-8.25 2.02,-15.12 -0.88,-5.55 -4.04,-8.76 -3.82,-14.86 0.19,-5.24 3.39,-9.26 3.95,-14.47 0.65,-5.97 0.01,-12.16 0.25,-18.18l0.03 -0.84 0.76 -0.35c6.53,-3.06 10.75,-9.4 10.81,-16.65 0.02,-3.87 -1,-7.34 -3.15,-10.54 -2.34,-3.49 -4.47,-4.4 -7.8,-6.75l-0.57 -0.4 -0.23 -16.24 0.52 -0.42c5.83,-4.67 14.81,-4.75 12.23,-17.39 -0.39,-1.93 -1.97,-4.12 -2.02,-5.92 -0.12,-5.28 6.23,-9.67 -1.04,-17.93 -4.05,-4.62 -10.54,-6.06 -16.17,-3.5 -7.3,3.31 -5.97,-4.33 -19.06,0.71 -3.11,1.19 -9.53,-2.59 -12.52,-3.88l-0.67 -0.28 -0.14 -0.7c-3.59,-17.31 -12.45,-18.58 -28.14,-18.58 -7.53,0 -12.9,-0.9 -19.4,3.7 -5.51,3.9 -7.1,8.69 -8.48,15.13l-0.18 0.82 -0.81 0.22c-17.66,4.87 -32.05,22.03 -36.29,39.51 -2,8.26 -0.7,15.97 -1.96,24.72 -2.49,4.29 -11.41,4.41 -11.31,17.72 0.03,3.93 1.2,7.34 3.43,10.56 2.45,3.52 7.73,5.59 8.28,8.47 0,5.62 -0.52,11.85 0.17,17.39 0.65,5.07 3.7,8.84 3.92,14.05 0.34,8.15 -5.46,12.29 -3.75,22.81 0.4,2.54 1.55,4.91 1.76,7.46l0.05 0.65 -0.48 0.46c-6.97,6.64 -10.99,12.18 -11.39,22.21 -0.46,11.67 -0.03,23.37 -0.03,35.04 0,16.55 1.37,15.05 17.02,15.05l123.67 0c4.38,0 9.54,0.93 11.87,-3.73 1.21,-2.42 1.73,-11.01 -0.69,-12.64 -1.47,-0.99 -3.86,-0.77 -4.9,0.73 -1.15,1.68 -0.64,5.3 -0.64,7.29l0 1.39 -20.53 -0.08 0.7 -1.85c5.47,-14.53 3.72,-30.3 -10.03,-39.16 -11.23,-7.24 -31.77,-4.98 -37.98,7.63l-0.57 1.16 -1.19 -0.49zm3.43 31.38c0,-8.44 -1.4,-19.83 3.31,-27.23 9.21,-14.43 31.3,-12.66 37.59,3.44 3.87,9.93 0.18,15.32 -2.78,24.24l-0.32 0.94 -37.8 -0.01 0 -1.38zm-44.65 0.61c-10.14,-14.16 -3.87,-36.36 14.78,-37.65 8,-0.56 15.88,3.41 19.93,10.38 4.24,7.26 2.93,18.42 2.93,26.67l0 1.39 -37.23 -0.22 -0.41 -0.57zm100.45 -127.22c1.43,2.75 0.86,13.28 0.44,16.62 -0.55,4.39 -3.28,7.9 -3.78,12.52 -1.26,11.53 6.27,14.7 2.83,27.59l-0.25 0.98 -1.01 0.05c-2.78,0.14 -5.3,-0.86 -7.98,-1.1l-28.23 -0.12 0.32 -14.06 0.64 -0.4c4.02,-2.49 8.4,-4.38 12.19,-7.23 9.04,-6.79 16.35,-17.06 19.81,-27.81 0.74,-2.31 0.76,-6.29 3.12,-7.61l1.25 -0.7 0.65 1.27zm-118.12 56.97c-3.22,-13.51 4.35,-16.75 2.8,-28.19 -0.33,-2.43 -0.9,-4.22 -1.8,-6.46 -2.63,-6.5 -2.55,-12.04 -2.12,-19.3l1.5 -5.59 1.7 2.35c1.62,2.24 3.68,11.09 5.3,14.47 5.78,12.1 16.71,22.56 29.17,27.59l0.87 0.35 -0.05 14.32 -1.36 0.02c-12.51,0.2 -21.85,-0.23 -34.49,1.49l-1.23 0.17 -0.29 -1.22zm115.94 -64.84l0 -22.94 1.38 0.01c17.49,0.1 17.76,22.75 0.01,22.92l-1.39 0.01zm-106.1 -22.71c4.99,-0.69 9.63,0.39 14.53,-1.23 4.63,-1.53 5.52,-3.4 9.09,-5.91l0.7 -0.49 0.76 0.41c2.71,1.48 4.47,3.68 7.43,5.1 5.88,2.84 16.22,1.89 22.82,1.89 9.66,0 10.21,-1.91 17.03,-6.89l0.69 -0.51 0.76 0.4c12.71,6.68 4.19,7 23.94,7l1.38 0 0 18.79c0,31.83 -26.85,56.27 -58.79,50.72 -13.59,-2.36 -25.72,-10.33 -33.29,-21.87 -9.92,-15.1 -8.24,-28.82 -8.24,-46.05l0 -1.2 1.19 -0.16zm-9.68 22.63c-17.19,0.78 -17.09,-24.15 0.23,-22.71l1.27 0.1 -0.2 22.55 -1.3 0.06zm104.44 -83.87c6.75,-3.09 7.88,4.97 12.85,3.08 4.07,-2.41 9.88,-7.26 13.43,-0.19 3.62,7.21 -5.25,8.37 -2.73,14.05 1.01,2.28 2.97,2.47 3.46,5.82 0.41,2.75 -1.01,5.68 -3.47,7 -6.76,3.62 -8.28,-4.52 -13.44,-2.95 -3.68,1.49 -8.88,7.69 -13.23,0.71 -4.43,-7.11 4.47,-8.65 2.59,-14.17 -1.14,-3.38 -6.06,-5.52 -2.61,-10.95 1.19,-1.89 1.43,-1.62 3.15,-2.4zm-105.73 52.67c0,-12.63 -0.06,-22.19 6.38,-33.43 4.77,-8.33 11.87,-15.04 20.42,-19.39 11.6,-5.9 21.62,-5.12 34.15,-5.12 11.6,0 23.66,-1.87 33.37,5.73l0.51 0.4 0.01 0.66c0.06,2.71 -0.58,4.72 -0.01,7.51 0.55,2.67 2.51,4.34 1.79,7.22 -0.66,2.65 -1.9,3.5 -2.08,6.66 -0.12,2.11 0.28,4.4 1.1,6.35 1.54,3.64 4.75,6.54 8.53,7.7 7.52,2.3 8.24,-1.68 13.7,-1.78l1.16 -0.02 0.22 1.14c1.03,5.19 0.59,10.84 0.59,16.13l0 1.17 -1.16 0.19c-4.06,0.66 -19.54,0.71 -23.06,-0.75 -9.44,-3.9 -6.21,-11.81 -8.96,-14.28 -1.48,-1.34 -4.34,-1.16 -5.31,0.75 -1.4,2.72 -0.37,5.41 -2.71,8.87 -4.45,6.57 -11.95,5.67 -18.88,5.67 -7.01,0 -14.4,0.76 -18.72,-5.92 -2.21,-3.41 -1.26,-6.34 -2.59,-8.7 -1.02,-1.8 -3.91,-2.13 -5.38,-0.61 -2.71,2.76 0.54,10.6 -9.11,14.31 -4.26,1.64 -17.45,0.93 -22.58,0.92l-1.38 -0.01 0 -1.37zm78.33 -64.59c-12.13,-0.6 -24.63,-0.78 -36.74,0.07l-1.59 0.12 0.12 -1.59c0.26,-3.45 3.76,-6.63 6.78,-7.88 3.55,-1.46 9.01,-1 12.86,-1 7.55,0 17.61,-0.63 19.97,8.56l0.47 1.81 -1.87 -0.09z"/>
   </g>
  </g>
 </g>
</svg>
