<?xml version="1.0" encoding="UTF-8"?>
<!DOCTYPE svg PUBLIC "-//W3C//DTD SVG 1.1//EN" "http://www.w3.org/Graphics/SVG/1.1/DTD/svg11.dtd">
<!-- Creator: CorelDRAW 2020 (64-Bit) -->
<svg xmlns="http://www.w3.org/2000/svg" xml:space="preserve" width="4.2332mm" height="4.2332mm" version="1.1" style="shape-rendering:geometricPrecision; text-rendering:geometricPrecision; image-rendering:optimizeQuality; fill-rule:evenodd; clip-rule:evenodd"
viewBox="0 0 423.32 423.32"
 xmlns:xlink="http://www.w3.org/1999/xlink"
 xmlns:xodm="http://www.corel.com/coreldraw/odm/2003">
 <defs>
  <style type="text/css">
   <![CDATA[
    .fil0 {fill:#FEFEFE}
    .fil2 {fill:#6666FF}
    .fil1 {fill:#6666FF;fill-rule:nonzero}
   ]]>
  </style>
 </defs>
 <g id="Layer_x0020_1">
  <metadata id="CorelCorpID_0Corel-Layer"/>
  <g id="_1679953229440">
   <rect class="fil0" x="4.88" y="4.88" width="413.56" height="413.56" rx="41.08" ry="41.08"/>
   <path class="fil1" d="M45.96 0l331.4 0c12.63,0 24.12,5.17 32.45,13.49 8.34,8.35 13.51,19.84 13.51,32.47l0 331.4c0,12.63 -5.17,24.12 -13.49,32.45 -8.35,8.34 -19.84,13.51 -32.47,13.51l-331.4 0c-12.63,0 -24.12,-5.17 -32.45,-13.49 -8.34,-8.35 -13.51,-19.84 -13.51,-32.47l0 -331.4c0,-12.63 5.17,-24.12 13.49,-32.45 8.35,-8.34 19.84,-13.51 32.47,-13.51zm331.4 9.76l-331.4 0c-9.95,0 -19.01,4.07 -25.57,10.63 -6.56,6.56 -10.63,15.61 -10.63,25.57l0 331.4c0,9.96 4.07,19.01 10.63,25.57 6.56,6.56 15.62,10.63 25.57,10.63l331.4 0c9.96,0 19.01,-4.07 25.57,-10.63 6.56,-6.56 10.63,-15.61 10.63,-25.57l0 -331.4c0,-9.96 -4.07,-19.01 -10.63,-25.57 -6.56,-6.56 -15.61,-10.63 -25.57,-10.63z"/>
   <path class="fil1" d="M211.66 68.99c39.39,0 75.07,15.97 100.89,41.78 25.81,25.82 41.78,61.5 41.78,100.89 0,39.39 -15.97,75.07 -41.78,100.89 -25.82,25.81 -61.5,41.78 -100.89,41.78 -39.39,0 -75.07,-15.97 -100.89,-41.78 -25.81,-25.82 -41.78,-61.5 -41.78,-100.89 0,-39.39 15.97,-75.07 41.78,-100.89 25.82,-25.81 61.5,-41.78 100.89,-41.78zm92.11 50.56c-23.57,-23.58 -56.14,-38.16 -92.11,-38.16 -35.97,0 -68.54,14.58 -92.11,38.16 -23.58,23.57 -38.16,56.14 -38.16,92.11 0,35.97 14.58,68.54 38.16,92.11 23.57,23.58 56.14,38.16 92.11,38.16 35.97,0 68.54,-14.58 92.11,-38.16 23.58,-23.57 38.16,-56.14 38.16,-92.11 0,-35.97 -14.58,-68.54 -38.16,-92.11z"/>
   <g>
    <circle class="fil2" cx="140.42" cy="212.1" r="17.8"/>
    <circle class="fil2" cx="211.66" cy="211.66" r="17.8"/>
    <circle class="fil2" cx="282.9" cy="211.22" r="17.8"/>
   </g>
  </g>
 </g>
</svg>
