<?xml version="1.0" encoding="UTF-8"?>
<!DOCTYPE svg PUBLIC "-//W3C//DTD SVG 1.1//EN" "http://www.w3.org/Graphics/SVG/1.1/DTD/svg11.dtd">
<!-- Creator: CorelDRAW 2020 (64-Bit) -->
<svg xmlns="http://www.w3.org/2000/svg" xml:space="preserve" width="4.2332mm" height="4.2332mm" version="1.1" style="shape-rendering:geometricPrecision; text-rendering:geometricPrecision; image-rendering:optimizeQuality; fill-rule:evenodd; clip-rule:evenodd"
viewBox="0 0 423.32 423.32"
 xmlns:xlink="http://www.w3.org/1999/xlink"
 xmlns:xodm="http://www.corel.com/coreldraw/odm/2003">
 <defs>
  <style type="text/css">
   <![CDATA[
    .fil0 {fill:#FEFEFE}
    .fil2 {fill:#669999}
    .fil1 {fill:#669999;fill-rule:nonzero}
   ]]>
  </style>
 </defs>
 <g id="Layer_x0020_1">
  <metadata id="CorelCorpID_0Corel-Layer"/>
  <rect class="fil0" x="4.88" y="4.88" width="413.56" height="413.56" rx="41.08" ry="41.08"/>
  <path class="fil1" d="M45.96 0l331.4 0c12.63,0 24.12,5.17 32.45,13.49 8.34,8.35 13.51,19.84 13.51,32.47l0 331.4c0,12.63 -5.17,24.12 -13.49,32.45 -8.35,8.34 -19.84,13.51 -32.47,13.51l-331.4 0c-12.63,0 -24.12,-5.17 -32.45,-13.49 -8.34,-8.35 -13.51,-19.84 -13.51,-32.47l0 -331.4c0,-12.63 5.17,-24.12 13.49,-32.45 8.35,-8.34 19.84,-13.51 32.47,-13.51zm331.4 9.76l-331.4 0c-9.95,0 -19.01,4.07 -25.57,10.63 -6.56,6.56 -10.63,15.61 -10.63,25.57l0 331.4c0,9.96 4.07,19.01 10.63,25.57 6.56,6.56 15.62,10.63 25.57,10.63l331.4 0c9.96,0 19.01,-4.07 25.57,-10.63 6.56,-6.56 10.63,-15.61 10.63,-25.57l0 -331.4c0,-9.96 -4.07,-19.01 -10.63,-25.57 -6.56,-6.56 -15.61,-10.63 -25.57,-10.63z"/>
  <g id="_1679776325440">
   <g>
    <path class="fil2" d="M255.69 79.21c-21.5,2.8 -39.73,15.47 -47.63,35.93 -1.75,4.52 -9.04,31.7 0.85,31.03 3.2,-0.21 6.76,-7.17 10.85,-9.93 10.29,-6.93 23.97,-6.12 33.06,2.44 6.35,5.98 4.28,10.66 4.28,18.76 0,11.15 -3.35,26.57 8.51,32.65 10.65,5.45 24.51,-5.47 21.29,-14.95 -0.71,-2.09 -2.93,-3.1 -5.03,-2.61 -2.99,0.71 -2.8,3.06 -3.47,5.66 -1.84,7.21 -12.81,6.99 -12.81,-3.2l0 -29.09c0,-6.95 11.48,-12.76 17.37,-13.88 8.11,-1.55 17.16,0.82 23.05,6.73 1.45,1.46 5.09,6.66 6.63,7.19 11.2,3.9 3.87,-25.81 2.32,-29.92 -13.36,-35.39 -47.26,-35.03 -48.98,-37.96 -0.87,-1.49 0.04,-4.36 -0.9,-6.18 -0.74,-1.45 -2.23,-2.22 -3.83,-2.19 -5.25,0.09 -3.42,4.77 -4.53,8.64l-0.23 0.78 -0.8 0.1zm-42.11 48.25c0.5,-10.21 8.54,-21.8 16.02,-28.31 18.47,-16.09 45.31,-15.31 63.82,0.37 7.74,6.56 14.65,17.68 15.81,27.87l0.21 1.86 -1.79 -0.52c-4.06,-1.19 -7.19,-3.68 -11.63,-4.72 -8.15,-1.9 -16.04,-1.21 -23.5,2.65 -3.88,2 -7.96,6.13 -10.78,7.46l-0.63 0.3 -0.59 -0.4c-8.36,-5.61 -8.82,-8.73 -20.46,-10.55 -12.27,-1.92 -14.77,1.71 -24.83,5.22l-1.74 0.61 0.09 -1.84z"/>
   </g>
   <g>
    <path class="fil2" d="M170.17 75.09c-0.95,10.91 -0.83,22.41 -0.37,33.32 0.73,17.2 2.35,37.68 7.03,54.23 2.3,8.16 7.82,17.7 9.39,24.48l0.35 1.49 -1.54 0.03c-28.77,0.51 -25.84,-2.75 -52.59,9.62 -4.5,2.07 -4.04,2.92 -8.27,1.68 -7.21,-2.12 -20.5,1.4 -30.17,-1.48 -4.64,-1.38 -11.62,-4.08 -16.2,-4.59 -5.26,-0.58 -6.94,6.12 -1.94,8.16 5.06,2.07 11.56,2.46 16.32,4.95l0.66 0.34 0.19 55.82 -1.17 0.07c-4,0.24 -16.46,-1.52 -18.46,2.33 -1.08,2.07 -0.44,4.59 1.6,5.73 3.26,1.44 37.2,0.53 43.72,0.55 6.12,0.02 3.52,0.58 8.39,-2.31l0.59 -0.35 22.22 11.55 0.04 0.7c0.35,6.9 0.18,11.65 4.79,17.19 3.78,4.55 8.82,7.23 14.74,7.68 5.9,0.44 11.67,-1.93 15.84,-6.07 5.47,-5.43 5.08,-8.94 6.2,-16.29l0.14 -0.94 0.96 -0.11c10.68,-1.11 19.85,2.28 26.01,-9.98 1.87,-3.71 1.21,-9.9 4.46,-10.66 9.46,0.15 10.81,5.87 10.81,14.03l-0.02 91.77c0.08,7.9 7.59,6.78 8.41,2.13 0.58,-3.58 0.22,-11.29 0.23,-15.11 0.05,-10.21 0.03,-20.42 0.01,-30.62 -0.03,-15.22 -0.14,-30.44 -0.14,-45.65 0,-6.68 0.59,-12.27 -3.73,-17.81 -3.54,-4.55 -8.35,-6.98 -14.11,-7.2 -5.68,-0.23 -5.08,1.4 -9.26,-2.83 -8.49,-8.58 -20.94,-1.97 -26.46,-7.06 -2.76,-2.54 -3.05,-6.99 -0.56,-9.82 2.66,-3.02 6.58,-2.54 10.22,-2.54l33.64 -0.01c5.06,0 5.25,0.92 8.73,3.76 4.58,3.75 8.79,6.2 11.43,11.86 3.28,7.03 0.71,13.28 3.07,19.71 1.94,5.24 5.72,9.57 11.14,11.29l0.86 0.27 0 90.27c0,2.38 1.95,4.32 4.33,4.32 2.38,0 4.33,-1.94 4.33,-4.32l0 -90.4 0.86 -0.28c2.33,-0.75 4.48,-1.94 6.41,-3.44 10.8,-8.34 6.06,-24.68 5.42,-36.32l-0.03 -0.58 0.43 -0.39c2.11,-1.98 6.04,-4.26 8.51,-6 5.33,-3.77 10.33,-7.88 15.01,-12.43 6.99,-6.8 13.76,-15.05 18.75,-23.42 22.56,-37.8 18.83,-65.76 18.83,-107.67 0,-19.1 0.54,-14.24 -20.39,-20 -11.16,-3.09 -22.34,-6.11 -33.47,-9.29 -39.62,-11.31 -26.67,-12.09 -65.95,-1.13 -20.06,5.59 -40.78,10.34 -60.24,17.77zm171.46 5.52c1.38,14.83 0.34,34.96 0.11,50.27 -0.5,32.91 -15.13,65.07 -40.08,86.64 -2.85,2.46 -12.45,10.33 -15.67,10.82l-0.84 0.12 -0.42 -0.73c-4.16,-7.18 -7.48,-11.79 -13.95,-17.01 -5.92,-4.78 -11.98,-9.38 -17.95,-14.09 -7.37,-5.83 -13.12,-7.95 -22.72,-7.97 -10.75,-0.01 -21.5,0.01 -32.25,0.01l-0.66 0 -0.37 -0.54c-12.89,-18.84 -17.41,-57.33 -18.38,-80.06 -0.38,-8.83 -0.47,-17.79 -0.04,-26.61l0.04 -0.9 0.87 -0.24c20.06,-5.54 40.1,-11.13 60.14,-16.72 5.49,-1.53 10.98,-3.05 16.47,-4.58 7.94,-2.21 10.47,-0.11 18.08,2 11.13,3.09 22.27,6.17 33.39,9.29 11.05,3.11 22.05,6.71 33.26,9.21l0.88 0.19 0.09 0.9zm-158.82 203.44c0.65,7.24 -4.44,13.68 -11.89,13.78 -7.52,0.09 -13.39,-6.58 -12.11,-14.06l0.18 -1.04 23.71 0.2 0.11 1.12zm-81.3 -20.86l0.22 -55.12 16.71 0.02 -0.16 55.25 -16.77 -0.15zm25.56 -52.15c0.92,-1.84 1.56,-1.81 3.26,-2.56l21.52 -9.59c7.62,-3.05 25.85,-1.73 34.6,-1.73 11.88,0 23.76,0 35.63,0 15.55,0 16.26,-0.88 28.38,8.4 15.16,11.59 29.45,20.59 30.89,41.57 0.28,3.98 0.85,14.44 -0.82,17.78 -2.54,5.1 -8.97,6.88 -13.71,3.53 -5.21,-3.68 -3.61,-9.96 -4.19,-15.41 -0.46,-4.33 -1.88,-8.75 -4.19,-12.46 -3.01,-4.82 -13.24,-13.64 -18.19,-16.66 -3.15,-1.92 -28.26,-0.88 -33.73,-0.88 -9.52,0 -20.43,-1.83 -26.17,7.59 -4.82,7.92 -1.67,18.11 6.52,22.15 8.05,3.99 26.3,-2.96 25.37,12.03 -0.4,6.39 -4.52,9.45 -10.7,9.48 -5.87,0.02 -11.73,-0.01 -17.59,-0.01 -35.7,0 -25.43,0.4 -56.31,-14.79l-0.69 -0.34 0 -47.84 0.12 -0.26z"/>
   </g>
  </g>
 </g>
</svg>
