<?xml version="1.0" encoding="UTF-8"?>
<!DOCTYPE svg PUBLIC "-//W3C//DTD SVG 1.1//EN" "http://www.w3.org/Graphics/SVG/1.1/DTD/svg11.dtd">
<!-- Creator: CorelDRAW 2020 (64-Bit) -->
<svg xmlns="http://www.w3.org/2000/svg" xml:space="preserve" width="4.2332mm" height="4.2332mm" version="1.1" style="shape-rendering:geometricPrecision; text-rendering:geometricPrecision; image-rendering:optimizeQuality; fill-rule:evenodd; clip-rule:evenodd"
viewBox="0 0 423.32 423.32"
 xmlns:xlink="http://www.w3.org/1999/xlink"
 xmlns:xodm="http://www.corel.com/coreldraw/odm/2003">
 <defs>
  <style type="text/css">
   <![CDATA[
    .fil0 {fill:#FEFEFE}
    .fil1 {fill:#669999}
   ]]>
  </style>
 </defs>
 <g id="Layer_x0020_1">
  <metadata id="CorelCorpID_0Corel-Layer"/>
  <rect class="fil0" x="4.88" y="4.88" width="413.56" height="413.56" rx="41.08" ry="41.08"/>
  <path class="fil1" d="M176.62 364.77c14.33,0.11 26.68,-3.4 26.27,10.57l-41.39 -0.01c-0.3,-6.54 0.23,-12.92 -0.42,-19.42l-11.39 -124.7 42.32 7.75c0.25,0.5 0.2,0.24 0.3,1.14l-7.83 61.83c-0.61,4.35 -8.09,59.43 -7.86,62.84zm41.38 -327.71c7.78,0 14.82,3.17 19.95,8.27 5.13,5.16 8.3,12.2 8.3,19.98 0,7.76 -3.17,14.83 -8.3,19.95 -5.08,5.11 -12.16,8.29 -19.95,8.29 -7.78,0 -14.85,-3.18 -19.96,-8.28l-0.43 -0.43c-5.72,1.8 -13.23,5.66 -15.01,6.57 -14.74,7.47 -15.82,23.17 -18.45,36.45 -4.79,24.18 -8.97,50.03 -13.85,73.5 -1.01,4.82 -3.05,13.72 -3.28,18.21l53.47 9.65c0.66,-1.23 3,-13.12 4.89,-23.46 1,-5.5 3.52,-19.53 4.67,-26.19l-13.91 -6c-8.39,-3.6 -8.95,-2.59 -9.7,-6.8 -0.72,-4.09 -8.07,-39.47 -7.87,-41.43 0.45,-4.3 6.3,-6.62 9.49,-3.08 2.02,2.24 6.16,27.1 7.5,33.92 0.43,2.24 0.45,4.96 1.97,6.04l57.13 24.67c3.84,1.62 9.18,4.5 10.61,-1.32 1.27,-4.84 -3.41,-7.24 -7.04,-9.25 -7.03,-3.87 -13.88,-7.67 -20.8,-11.62l-31.68 -17.71c-1.83,-1.52 -5.14,-25.35 -5.37,-27.71 -0.52,-5.56 5.11,-8.62 8.89,-5.26 4.48,3.99 2.91,23.29 6.44,25.99l42.24 23.63c8.37,4.65 13.67,7.7 16.03,14.04 1.97,5.29 2.05,10.81 0.37,15.1 2.7,1.26 5.15,2.98 7.22,5.06 3.59,3.6 6.13,8.25 7.05,13.42 0.42,2.25 0.4,3.77 0.4,6.06l-2.06 163.49c-0.02,2.8 -2.29,5.1 -5.09,5.1l0 0c-2.8,0 -5.12,-2.3 -5.1,-5.1l2.07 -161.15c0,-5.7 -0.1,-10.19 -4.48,-14.57 -2.72,-2.71 -6.49,-4.41 -10.64,-4.41 -4.13,0 -7.91,1.7 -10.62,4.41 -2.71,2.71 -4.41,6.49 -4.41,10.62l0 1.61 -10.26 0 0 -1.61c0,-6.93 2.85,-13.26 7.42,-17.85 0.68,-0.68 1.4,-1.32 2.15,-1.91l-27.84 -12.01c-1.04,6.49 -3.37,19.53 -4.36,24.96 -2.24,12.49 -5.56,29.12 -6.39,33.08 -2.3,-0.17 -4.46,-0.97 -6.17,-0.38l-14.24 112.19c5.16,0.05 8.55,-0.43 13.12,1.5 3.14,1.35 6.31,4.12 7.99,6.48 4.44,6.26 4.3,15.59 3.71,24.5l-63.17 -0.01c-0.56,-6.38 -0.13,-14.76 -0.12,-21.36 0.01,-6.58 -0.7,-12.99 -1.32,-19.46l-7.27 -77.81c-1.31,-12.6 -2.01,-25.63 -3.54,-38.32l-4.11 -1.18 7.73 -42.03c2.81,-13.89 5.39,-28.12 7.9,-41.99 3.07,-16.91 4.83,-36.22 13.18,-49.24 5.61,-8.75 18.22,-16.35 28.71,-19.02 -1.3,-3.26 -2.04,-6.82 -2.04,-10.54 0,-7.79 3.17,-14.87 8.27,-19.98 5.13,-5.1 12.2,-8.27 19.96,-8.27zm12.25 16c-3.11,-3.12 -7.45,-5.05 -12.25,-5.05 -4.79,0 -9.12,1.93 -12.22,5.04 -3.12,3.14 -5.06,7.47 -5.06,12.26 0,4.76 1.94,9.11 5.06,12.22 3.12,3.12 7.46,5.06 12.22,5.06 4.79,0 9.12,-1.94 12.24,-5.06 3.13,-3.1 5.06,-7.43 5.06,-12.22 0,-4.8 -1.93,-9.13 -5.05,-12.25zm-10.24 48.91c0.65,2.42 1.66,5.24 1.87,8.35 0.74,10.53 0.82,9.57 2.32,19.75 0.36,2.42 0.09,2.27 2.02,3.43 1.25,0.74 2.25,1.35 3.37,1.46 2.28,-11.8 5.28,-23.26 1.19,-34.94l-10.77 1.95z"/>
 </g>
</svg>
