<?xml version="1.0" encoding="UTF-8" standalone="no"?>
<!-- Creator: CorelDRAW 2020 (64-Bit) -->

<svg
   xml:space="preserve"
   width="210mm"
   height="297mm"
   version="1.1"
   style="shape-rendering:geometricPrecision; text-rendering:geometricPrecision; image-rendering:optimizeQuality; fill-rule:evenodd; clip-rule:evenodd"
   viewBox="0 0 21000 29700"
   id="svg960"
   sodipodi:docname="road.svg"
   inkscape:version="1.1.2 (b8e25be833, 2022-02-05)"
   xmlns:inkscape="http://www.inkscape.org/namespaces/inkscape"
   xmlns:sodipodi="http://sodipodi.sourceforge.net/DTD/sodipodi-0.dtd"
   xmlns="http://www.w3.org/2000/svg"
   xmlns:svg="http://www.w3.org/2000/svg"><sodipodi:namedview
   id="namedview962"
   pagecolor="#ffffff"
   bordercolor="#666666"
   borderopacity="1.0"
   inkscape:pageshadow="2"
   inkscape:pageopacity="0.0"
   inkscape:pagecheckerboard="0"
   inkscape:document-units="mm"
   showgrid="false"
   inkscape:zoom="0.21736813"
   inkscape:cx="-480.75125"
   inkscape:cy="234.62501"
   inkscape:window-width="1366"
   inkscape:window-height="697"
   inkscape:window-x="-8"
   inkscape:window-y="-8"
   inkscape:window-maximized="1"
   inkscape:current-layer="Layer_x0020_1"
   inkscape:showpageshadow="false"
   showborder="true" />
 <defs
   id="defs899"><style
     type="text/css"
     id="style894">
   <![CDATA[
    .fil3 {fill:none}
    .fil2 {fill:#FEFEFE}
    .fil0 {fill:#434242}
    .fil1 {fill:#FBBE07}
   ]]>
  </style><clipPath
     id="id0">
    <path
   d="M-3161.05 0.53l27307.84 0 0 29700 -27307.84 0 0 -29700z"
   id="path896" />
   </clipPath></defs>
 <g
   id="Layer_x0020_1"
   inkscape:label="Layer 1">
  <metadata
   id="CorelCorpID_0Corel-Layer" />
  <polygon
   class="fil0"
   points="24146.79,29700.53 -3161.05,29700.53 -3161.05,0.53 24146.79,0.53 "
   id="polygon902"
   transform="matrix(0.78546315,0,0,1.0464873,2343.7307,23.63462)" />
  <g
   clip-path="url(#id0)"
   id="g955"
   transform="matrix(0.78546315,0,0,1.0464873,2343.7307,23.63462)">
   <g
   id="_2000058899904">
    <rect
   class="fil1"
   x="22888.91"
   y="-2210.6201"
   width="460.98001"
   height="35378.691"
   id="rect904" />
    <rect
   class="fil1"
   x="-2253.77"
   y="-2263.5601"
   width="460.98001"
   height="35378.691"
   id="rect906" />
    <g
   id="g952">
     <g
   id="g928">
      <rect
   class="fil2"
   x="8379.0898"
   y="-621.65997"
   width="454.76999"
   height="2146.99"
   id="rect908" />
      <rect
   class="fil2"
   x="8378.4004"
   y="2578.05"
   width="454.76999"
   height="2146.99"
   id="rect910" />
      <rect
   class="fil2"
   x="8377.7197"
   y="5777.7598"
   width="454.76999"
   height="2146.99"
   id="rect912" />
      <rect
   class="fil2"
   x="8377.0195"
   y="8977.4697"
   width="454.76999"
   height="2146.99"
   id="rect914" />
      <rect
   class="fil2"
   x="8376.3301"
   y="12177.18"
   width="454.76999"
   height="2146.99"
   id="rect916" />
      <rect
   class="fil2"
   x="8375.6504"
   y="15376.89"
   width="454.76999"
   height="2146.99"
   id="rect918" />
      <rect
   class="fil2"
   x="8374.9502"
   y="18576.6"
   width="454.76999"
   height="2146.99"
   id="rect920" />
      <rect
   class="fil2"
   x="8374.2598"
   y="21776.311"
   width="454.76999"
   height="2146.99"
   id="rect922" />
      <rect
   class="fil2"
   x="8373.5801"
   y="24976.02"
   width="454.76999"
   height="2146.99"
   id="rect924" />
      <rect
   class="fil2"
   x="8372.8896"
   y="28175.73"
   width="454.76999"
   height="2146.99"
   id="rect926" />
     </g>
     <g
   id="g950">
      <rect
   class="fil2"
   x="12158.07"
   y="-621.65997"
   width="454.76999"
   height="2146.99"
   id="rect930" />
      <rect
   class="fil2"
   x="12157.38"
   y="2578.05"
   width="454.76999"
   height="2146.99"
   id="rect932" />
      <rect
   class="fil2"
   x="12156.68"
   y="5777.7598"
   width="454.76999"
   height="2146.99"
   id="rect934" />
      <rect
   class="fil2"
   x="12156"
   y="8977.4697"
   width="454.76999"
   height="2146.99"
   id="rect936" />
      <rect
   class="fil2"
   x="12155.31"
   y="12177.18"
   width="454.76999"
   height="2146.99"
   id="rect938" />
      <rect
   class="fil2"
   x="12154.61"
   y="15376.89"
   width="454.76999"
   height="2146.99"
   id="rect940" />
      <rect
   class="fil2"
   x="12153.92"
   y="18576.6"
   width="454.76999"
   height="2146.99"
   id="rect942" />
      <rect
   class="fil2"
   x="12153.24"
   y="21776.311"
   width="454.76999"
   height="2146.99"
   id="rect944" />
      <rect
   class="fil2"
   x="12152.55"
   y="24976.02"
   width="454.76999"
   height="2146.99"
   id="rect946" />
      <rect
   class="fil2"
   x="12151.85"
   y="28175.73"
   width="454.76999"
   height="2146.99"
   id="rect948" />
     </g>
    </g>
   </g>
  </g>
  <polygon
   class="fil3"
   points="24146.79,29700.53 -3161.05,29700.53 -3161.05,0.53 24146.79,0.53 "
   id="polygon957"
   transform="matrix(0.78546315,0,0,1.0464873,2343.7307,23.63462)" />
 </g>
</svg>
