<?xml version="1.0" encoding="UTF-8"?>
<!DOCTYPE svg PUBLIC "-//W3C//DTD SVG 1.1//EN" "http://www.w3.org/Graphics/SVG/1.1/DTD/svg11.dtd">
<!-- Creator: CorelDRAW 2020 (64-Bit) -->
<svg xmlns="http://www.w3.org/2000/svg" xml:space="preserve" width="67.7332mm" height="101.6mm" version="1.1" style="shape-rendering:geometricPrecision; text-rendering:geometricPrecision; image-rendering:optimizeQuality; fill-rule:evenodd; clip-rule:evenodd"
viewBox="0 0 6773.32 10159.98"
 xmlns:xlink="http://www.w3.org/1999/xlink"
 xmlns:xodm="http://www.corel.com/coreldraw/odm/2003">
 <defs>
  <style type="text/css">
   <![CDATA[
    .fil3 {fill:none}
    .fil0 {fill:#434242}
    .fil1 {fill:#FBBE07}
    .fil2 {fill:#FEFEFE}
   ]]>
  </style>
   <clipPath id="id0">
    <path d="M-0.01 -0.01l6773.34 0 0 10160 -6773.34 0 0 -10160z"/>
   </clipPath>
 </defs>
 <g id="Layer_x0020_1">
  <metadata id="CorelCorpID_0Corel-Layer"/>
  <polygon class="fil0" points="-0.01,-0.01 6773.33,-0.01 6773.33,10159.99 -0.01,10159.99 "/>
  <g style="clip-path:url(#id0)">
   <g id="_2202858614800">
    <g>
     <rect class="fil1" x="6447.64" y="-89.85" width="114.34" height="10469.87"/>
     <rect class="fil1" x="211.34" y="-102.07" width="114.34" height="10482.09"/>
     <g>
      <rect class="fil2" x="2862.45" y="-61.7" width="112.8" height="495.66"/>
      <rect class="fil2" x="2862.29" y="676.99" width="112.8" height="495.66"/>
      <rect class="fil2" x="2862.11" y="1415.67" width="112.8" height="495.66"/>
      <rect class="fil2" x="2861.94" y="2154.36" width="112.8" height="495.66"/>
      <rect class="fil2" x="2861.77" y="2893.05" width="112.8" height="495.66"/>
      <rect class="fil2" x="2861.6" y="3631.73" width="112.8" height="495.66"/>
      <rect class="fil2" x="2861.43" y="4370.42" width="112.8" height="495.66"/>
      <rect class="fil2" x="2861.26" y="5109.11" width="112.8" height="495.66"/>
      <rect class="fil2" x="2861.09" y="5847.8" width="112.8" height="495.66"/>
      <rect class="fil2" x="2860.92" y="6586.48" width="112.8" height="495.66"/>
      <rect class="fil2" x="3799.78" y="-61.7" width="112.8" height="495.66"/>
      <rect class="fil2" x="3799.61" y="676.99" width="112.8" height="495.66"/>
      <rect class="fil2" x="3799.43" y="1415.67" width="112.8" height="495.66"/>
      <rect class="fil2" x="3799.27" y="2154.36" width="112.8" height="495.66"/>
      <rect class="fil2" x="3799.09" y="2893.05" width="112.8" height="495.66"/>
      <rect class="fil2" x="3798.92" y="3631.73" width="112.8" height="495.66"/>
      <rect class="fil2" x="3798.75" y="4370.42" width="112.8" height="495.66"/>
      <rect class="fil2" x="3798.58" y="5109.11" width="112.8" height="495.66"/>
      <rect class="fil2" x="3798.41" y="5847.8" width="112.8" height="495.66"/>
      <rect class="fil2" x="3798.24" y="6586.48" width="112.8" height="495.66"/>
      <rect class="fil2" x="2861.25" y="7302.17" width="112.8" height="495.66"/>
      <rect class="fil2" x="2861.09" y="8040.86" width="112.8" height="495.66"/>
      <rect class="fil2" x="2860.91" y="8779.54" width="112.8" height="495.66"/>
      <rect class="fil2" x="2860.74" y="9518.23" width="112.8" height="495.66"/>
      <rect class="fil2" x="3798.58" y="7302.17" width="112.8" height="495.66"/>
      <rect class="fil2" x="3798.41" y="8040.86" width="112.8" height="495.66"/>
      <rect class="fil2" x="3798.23" y="8779.54" width="112.8" height="495.66"/>
      <rect class="fil2" x="3798.07" y="9518.23" width="112.8" height="495.66"/>
     </g>
    </g>
   </g>
  </g>
  <polygon class="fil3" points="-0.01,-0.01 6773.33,-0.01 6773.33,10159.99 -0.01,10159.99 "/>
 </g>
</svg>
