<?xml version="1.0" encoding="UTF-8"?>
<!DOCTYPE svg PUBLIC "-//W3C//DTD SVG 1.1//EN" "http://www.w3.org/Graphics/SVG/1.1/DTD/svg11.dtd">
<!-- Creator: CorelDRAW 2020 (64-Bit) -->
<svg xmlns="http://www.w3.org/2000/svg" xml:space="preserve" width="4.2332mm" height="4.2332mm" version="1.1" style="shape-rendering:geometricPrecision; text-rendering:geometricPrecision; image-rendering:optimizeQuality; fill-rule:evenodd; clip-rule:evenodd"
viewBox="0 0 423.32 423.32"
 xmlns:xlink="http://www.w3.org/1999/xlink"
 xmlns:xodm="http://www.corel.com/coreldraw/odm/2003">
 <defs>
  <style type="text/css">
   <![CDATA[
    .fil0 {fill:#FEFEFE}
    .fil1 {fill:#2F7C32}
   ]]>
  </style>
 </defs>
 <g id="Layer_x0020_1">
  <metadata id="CorelCorpID_0Corel-Layer"/>
  <rect class="fil0" x="4.88" y="4.88" width="413.56" height="413.56" rx="41.08" ry="41.08"/>
  <path class="fil1" d="M273.5 64.09l-1.79 -0.14c-2.8,-0.58 -5.63,-1.06 -8.5,-1.43l0.01 0.18c-6.95,-1.33 -13.36,-2.81 -28.85,-1.49 -38.19,3.25 -72.71,24.95 -91.55,55.16 -4.36,7.01 -4.84,6.17 -4,16.53 0.37,4.69 0.5,15.51 1.68,19.3 1.83,5.89 6.21,6.78 12.45,8.5 11.15,3.05 21.97,5.88 33.14,8.87 19.59,5.24 15.8,0.81 25.36,-10.8 3.74,17.91 -3.56,17.01 21.94,23.48 2.2,0.56 3.48,0.64 5.13,1.86l-25.59 96.26 -91.36 0c-14.44,-0.13 -24.85,0.82 -33.89,11.44 -4.38,5.14 -6.73,12.89 -7.23,21.51 -0.86,14.58 5.72,10.33 17.33,11.35 -1.95,6.35 -8.04,16.65 -9.92,22.32 -1.35,4.1 -1.42,6.08 -0.35,9.13 -7.33,0 -14.68,-0.06 -22.01,-0.02 -9.71,0.04 -9.07,9.31 -0.54,9.31l282.67 0c5.98,0 8.09,-4.87 4.61,-8.02 -2.5,-2.28 -10.98,-1.27 -14.81,-1.27 -10.32,0 -21.28,0.35 -31.53,-0.06 2.05,-3.03 1.27,-5.54 -1.54,-11.94l-13.82 -30.83c13.7,-15.06 36.89,-37.02 52.28,-52.96 3.57,-3.7 18.6,-14.63 4.36,-19.61 -19.84,-6.95 -33.9,-11.13 -51.05,6.91 -5.83,6.14 -11.4,11.7 -17.24,17.87 -3.04,3.2 -5.92,5.66 -8.83,8.74 -4.09,4.32 -5.3,5.84 -8.37,6.36l0 -0.23 -38.84 0 24.87 -94.01c6.64,0.52 16.34,5.4 22.28,4.98 8.72,-0.63 9.5,-9.64 14.08,-13.01 1.07,19.76 2.66,18.43 20.33,22.97 11.16,2.87 22.83,6.5 33.96,9.08 10.64,2.48 14.8,-8.51 22.48,-19.83 4.72,-6.95 4.43,-7.16 3.6,-17.68 -0.51,-6.49 -1.56,-13.06 -2.99,-19.15 -3.11,-13.33 -8.86,-26.4 -16.22,-37.85 -5.62,-9.5 -12.7,-18.1 -20.96,-25.49 -11.81,-10.6 -26.03,-18.73 -41.73,-23.63 0.65,-4.77 8.17,-16.21 1.32,-18.31 -4.55,-1.4 -5.79,2.44 -6.87,5.54 -1.22,3.51 -2.71,6.81 -3.5,10.11zm81.83 112.89l-62.14 -16.44c0.06,-5.59 1.64,-12.95 2.06,-18.37 0.52,-6.61 0.92,-13.51 0.92,-20.39 0.01,-16.21 -1.78,-25.48 -2.58,-39.83 34.65,9.86 60.75,61.13 61.74,95.03zm-85.54 -103.95c-1.06,-0.22 -2.13,-0.43 -3.2,-0.61 -8.86,-0.48 -42.12,57.12 -44.84,68.63 1.86,1.17 57.07,16.09 61.87,16.71 2.92,-6.05 3.29,-31.22 3.29,-39.94 0,-13.25 -1.3,-27.86 -3.63,-40.51 -2.75,-1.52 -8.82,-3.11 -12.45,-4.02l-1.04 -0.26zm-11.09 217.1c11.64,0 15.57,-6.91 20.76,-12.18 5.49,-5.58 11.01,-11.16 16.59,-16.8 8.04,-8.12 16.17,-19.67 31.98,-16.73 3.32,0.61 10.61,2.85 12.88,4.28 -0.77,1.71 -55.02,55.93 -59.05,60 -3.48,3.51 -5.9,6.47 -13.53,6.56 -6.58,0.09 -13.24,-0.01 -19.83,-0.01 -52.97,0 -105.94,0 -158.91,0 -0.07,-9.69 3.18,-16.6 8.32,-20.54 6.98,-5.35 12.28,-5.06 21.64,-4.95 46.11,0.87 92.94,0.16 139.15,0.37zm17.32 34.46l11.72 28.15c1.03,2.47 3.9,3.65 6.37,2.62l0.01 0c2.47,-1.03 3.65,-3.89 2.62,-6.36l-10.16 -24.41 -10.56 0zm-158 0l-11.72 28.15c-1.03,2.47 -3.89,3.65 -6.36,2.62l-0.01 0c-2.47,-1.03 -3.65,-3.89 -2.62,-6.36l10.16 -24.41 10.55 0zm84.67 31.53l76.16 -0.01 -13.97 -31.5 -54.26 -0.07c-1.25,5.85 -8.2,27.99 -7.93,31.58zm-88.32 -0.2c11.4,1.05 56.68,-0.04 73.54,0.21 3.33,0.05 4.38,0.82 5.29,-1.86 0.53,-1.54 1.02,-4.11 1.51,-5.94 2.06,-7.58 4.96,-16.51 6.25,-23.69l-72.48 -0.1 -14.11 31.38zm228.36 -154.68c2.1,-4.46 7.73,-10.59 9.51,-14.87 -2.09,-1.4 -53.95,-15.29 -59.33,-16.09 0.08,2.98 0.19,17.11 1.87,18.59 1.09,0.96 12.96,3.64 15.4,4.33 5.32,1.49 28.57,8.33 32.55,8.04zm-72.54 -19.32c2.53,-4.61 7.14,-10.04 9.68,-14.81 -1.91,-1.61 -27.16,-7.8 -29.29,-8.36 -4.89,-1.29 -9.85,-2.68 -14.65,-3.96 -4.44,-1.18 -11.03,-3.4 -15.45,-3.81 1.03,22.33 -2.22,17.69 17.34,22.83 5.92,1.55 27.7,8.28 32.37,8.11zm-72.59 -19.33l10.13 -15.2 -59.46 -16.07c-0.2,2.98 0.41,17.05 1.45,18.43 1.12,1.52 45.42,12.83 47.88,12.84zm-47.17 -40.22c9.59,1.79 56.75,15.87 61.81,16.15l8.51 -18.98c5.45,-11.62 13.16,-23.63 20.75,-33.65 1.37,-1.81 11.84,-13.96 12.06,-15.45 -25.05,-1.39 -45.26,3.68 -63.51,13.89 -9.1,5.1 -15.48,10.28 -22.27,16.22 -2.9,2.54 -16.17,17.06 -17.35,21.82z"/>
 </g>
</svg>
